<svg width="82" height="82" viewBox="0 0 82 82" fill="none" xmlns="http://www.w3.org/2000/svg">
<path d="M76.2918 46.3889C79.3265 26.8389 65.9383 8.53029 46.3883 5.49551C26.8383 2.46073 8.52974 15.849 5.49496 35.399C2.46018 54.949 15.8484 73.2575 35.3984 76.2923C54.9484 79.3271 73.257 65.9389 76.2918 46.3889Z" fill="#0D2938"/>
<path d="M37.0047 29.0333C34.1783 28.0527 27.8331 26.1492 22.3533 26.2068C22.1802 26.7837 21.9495 27.3605 21.7188 27.8797C28.1216 27.4182 34.1783 28.4565 37.0047 29.0333Z" fill="#38A7DE"/>
<path d="M22.6995 24.8222C22.6419 25.1683 22.5265 25.5144 22.4111 25.8605C28.5255 25.8605 35.5628 28.1678 37.8125 28.9177C28.6986 23.9569 23.2764 24.7068 22.6995 24.8222Z" fill="#38A7DE"/>
<path d="M59.9627 27.8797C59.732 27.3605 59.5013 26.7837 59.3282 26.2068C53.7907 26.1492 47.5032 28.0527 44.6768 29.0333C47.5032 28.4565 53.6176 27.4182 59.9627 27.8797Z" fill="#38A7DE"/>
<path d="M43.8691 28.9177C46.1188 28.1101 53.1561 25.8028 59.2705 25.8605C59.1551 25.5144 59.0974 25.1106 58.9821 24.8222C58.4052 24.7068 53.0407 23.9569 43.8691 28.9177Z" fill="#38A7DE"/>
<path d="M61.0585 29.3793C60.7124 29.2063 60.424 28.8025 60.1933 28.2834C51.4832 27.5335 43.2922 29.7831 43.1768 29.7831L43.1191 29.3793C43.0615 29.3793 43.1191 29.3793 43.1191 29.3793L43.0615 29.1486L42.9461 28.6871C51.7139 23.8995 57.7129 24.1879 58.8666 24.3032C58.6935 23.611 58.6358 23.1496 58.6358 23.1496C49.3489 21.8806 41.7924 27.995 41.2733 28.3987C41.2156 28.341 41.0426 28.2834 40.8118 28.2834C40.5811 28.2834 40.408 28.3987 40.3504 28.3987C39.8889 27.995 32.2748 21.8806 22.9878 23.1496C22.9878 23.1496 22.9301 23.611 22.7571 24.3032C23.9107 24.1879 29.8521 23.8995 38.6776 28.6871L38.5622 29.1486V29.437C38.5622 29.437 38.6199 29.437 38.5622 29.437L38.5045 29.8408C38.3891 29.8408 30.1982 27.5912 21.488 28.341C21.1996 28.8602 20.9112 29.264 20.6228 29.437H19.123V30.9945H40.5234C40.5234 30.9945 40.235 30.2446 40.8118 30.0139C41.3887 30.2446 41.1002 30.9945 41.1002 30.9945H62.5583V29.437H61.0585V29.3793Z" fill="#38A7DE"/>
<path d="M21.6611 33.2441L21.2573 56.0866H24.5453L23.8531 33.2441H21.6611Z" fill="#38A7DE"/>
<path d="M28.8139 33.2441L28.4678 56.0866H31.698L31.0635 33.2441H28.8139Z" fill="#38A7DE"/>
<path d="M36.0241 33.2441L35.6204 56.0866H38.9083L38.2161 33.2441H36.0241Z" fill="#38A7DE"/>
<path d="M43.1769 33.2441L42.8308 56.0866H46.0611L45.4265 33.2441H43.1769Z" fill="#38A7DE"/>
<path d="M50.3872 33.2441L49.9834 56.0866H53.2713L52.5791 33.2441H50.3872Z" fill="#38A7DE"/>
<path d="M57.5399 33.2441L57.1938 56.0866H60.4241L59.7896 33.2441H57.5399Z" fill="#38A7DE"/>
</svg>
