<svg width="55" height="45" viewBox="0 0 55 45" fill="none" xmlns="http://www.w3.org/2000/svg">
<path d="M27.5 4C28.5609 4 29.5783 4.42143 30.3284 5.17157C31.0786 5.92172 31.5 6.93913 31.5 8C31.5 9.06087 31.0786 10.0783 30.3284 10.8284C29.5783 11.5786 28.5609 12 27.5 12C26.4391 12 25.4217 11.5786 24.6716 10.8284C23.9214 10.0783 23.5 9.06087 23.5 8C23.5 6.93913 23.9214 5.92172 24.6716 5.17157C25.4217 4.42143 26.4391 4 27.5 4ZM27.5 14C31.92 14 35.5 15.79 35.5 18V20H19.5V18C19.5 15.79 23.08 14 27.5 14Z" fill="#0D2938"/>
<path d="M7.51953 41L6.52148 38.2246H2.7002L1.72266 41H0L3.73926 30.9648H5.5166L9.25586 41H7.51953ZM6.09082 36.8164L5.1543 34.0957C5.08594 33.9134 4.99023 33.6263 4.86719 33.2344C4.7487 32.8424 4.66667 32.5553 4.62109 32.373C4.49805 32.9336 4.31803 33.5465 4.08105 34.2119L3.17871 36.8164H6.09082ZM13.4531 41.1367C12.3092 41.1367 11.4388 40.804 10.8418 40.1387C10.2493 39.4688 9.95312 38.5094 9.95312 37.2607C9.95312 35.9893 10.263 35.0117 10.8828 34.3281C11.5072 33.6445 12.4072 33.3027 13.583 33.3027C14.3805 33.3027 15.0983 33.4508 15.7363 33.7471L15.251 35.0391C14.5719 34.7747 14.0114 34.6426 13.5693 34.6426C12.2614 34.6426 11.6074 35.5107 11.6074 37.2471C11.6074 38.0947 11.7692 38.7327 12.0928 39.1611C12.4209 39.585 12.8994 39.7969 13.5283 39.7969C14.2438 39.7969 14.9206 39.6191 15.5586 39.2637V40.665C15.2715 40.8337 14.9639 40.9544 14.6357 41.0273C14.3122 41.1003 13.918 41.1367 13.4531 41.1367ZM20.3848 41.1367C19.2409 41.1367 18.3704 40.804 17.7734 40.1387C17.181 39.4688 16.8848 38.5094 16.8848 37.2607C16.8848 35.9893 17.1947 35.0117 17.8145 34.3281C18.4388 33.6445 19.3389 33.3027 20.5146 33.3027C21.3122 33.3027 22.0299 33.4508 22.668 33.7471L22.1826 35.0391C21.5036 34.7747 20.943 34.6426 20.501 34.6426C19.193 34.6426 18.5391 35.5107 18.5391 37.2471C18.5391 38.0947 18.7008 38.7327 19.0244 39.1611C19.3525 39.585 19.8311 39.7969 20.46 39.7969C21.1755 39.7969 21.8522 39.6191 22.4902 39.2637V40.665C22.2031 40.8337 21.8955 40.9544 21.5674 41.0273C21.2438 41.1003 20.8496 41.1367 20.3848 41.1367ZM30.9736 37.2061C30.9736 38.4411 30.6569 39.4049 30.0234 40.0977C29.39 40.7904 28.5081 41.1367 27.3779 41.1367C26.6715 41.1367 26.0472 40.9772 25.5049 40.6582C24.9626 40.3392 24.5456 39.8812 24.2539 39.2842C23.9622 38.6872 23.8164 37.9945 23.8164 37.2061C23.8164 35.9801 24.1309 35.0231 24.7598 34.335C25.3887 33.6468 26.2751 33.3027 27.4189 33.3027C28.5127 33.3027 29.3786 33.6559 30.0166 34.3623C30.6546 35.0641 30.9736 36.012 30.9736 37.2061ZM25.4707 37.2061C25.4707 38.9515 26.1156 39.8242 27.4053 39.8242C28.6813 39.8242 29.3193 38.9515 29.3193 37.2061C29.3193 35.4788 28.6768 34.6152 27.3916 34.6152C26.7171 34.6152 26.2272 34.8385 25.9219 35.2852C25.6211 35.7318 25.4707 36.3721 25.4707 37.2061ZM38.1582 41L37.9326 40.0088H37.8506C37.6273 40.3597 37.3083 40.6354 36.8936 40.8359C36.4834 41.0365 36.014 41.1367 35.4854 41.1367C34.5693 41.1367 33.8857 40.9089 33.4346 40.4531C32.9834 39.9974 32.7578 39.307 32.7578 38.3818V33.4395H34.3779V38.1016C34.3779 38.6803 34.4964 39.1156 34.7334 39.4072C34.9704 39.6943 35.3418 39.8379 35.8477 39.8379C36.5221 39.8379 37.0166 39.6374 37.3311 39.2363C37.6501 38.8307 37.8096 38.154 37.8096 37.2061V33.4395H39.4229V41H38.1582ZM48.3643 41H46.751V36.3516C46.751 35.7682 46.6325 35.333 46.3955 35.0459C46.1631 34.7588 45.7917 34.6152 45.2812 34.6152C44.6022 34.6152 44.1055 34.8158 43.791 35.2168C43.4766 35.6178 43.3193 36.29 43.3193 37.2334V41H41.7129V33.4395H42.9707L43.1963 34.4307H43.2783C43.5062 34.0706 43.8298 33.7926 44.249 33.5967C44.6683 33.4007 45.1331 33.3027 45.6436 33.3027C47.4574 33.3027 48.3643 34.2256 48.3643 36.0713V41ZM53.416 39.8379C53.8079 39.8379 54.1999 39.7764 54.5918 39.6533V40.8633C54.4141 40.9408 54.1839 41.0046 53.9014 41.0547C53.6234 41.1094 53.334 41.1367 53.0332 41.1367C51.5111 41.1367 50.75 40.3346 50.75 38.7305V34.6562H49.7178V33.9453L50.8252 33.3574L51.3721 31.7578H52.3633V33.4395H54.5166V34.6562H52.3633V38.7031C52.3633 39.0905 52.459 39.3776 52.6504 39.5645C52.8464 39.7467 53.1016 39.8379 53.416 39.8379Z" fill="#0D2938"/>
</svg>
