<svg width="242" height="199" viewBox="0 0 242 199" fill="none" xmlns="http://www.w3.org/2000/svg">
<g opacity="0.78">
<path d="M193.252 172.916H55.8904H54.1526C54.1526 172.916 53.0664 173.35 53.0664 175.523C53.0664 177.912 54.1526 178.202 54.1526 178.202H55.8904H114.542V192.756H55.8904H54.1526C54.1526 192.756 53.0664 193.191 53.0664 195.363C53.0664 197.753 54.1526 198.042 54.1526 198.042H55.8904H193.252C193.252 198.042 199.986 195.942 199.986 185.443C199.986 175.523 193.252 172.916 193.252 172.916Z" fill="#38A7DE"/>
<path d="M151.979 192.756H58.0635V178.201H151.979C151.979 178.201 156.251 179.287 156.251 185.515C156.251 191.814 151.979 192.756 151.979 192.756Z" fill="white"/>
<path d="M129.241 181.46H58.0615V182.908H129.241V181.46Z" fill="#D0D0D0"/>
<path d="M125.765 188.413H58.0615V190.079H125.765V188.413Z" fill="#D0D0D0"/>
<path d="M199.985 185.516C199.985 175.524 193.251 172.917 193.251 172.917H155.742C155.742 172.917 162.476 175.524 162.476 185.516C162.476 196.016 155.742 198.116 155.742 198.116H193.251C193.251 198.116 199.985 196.016 199.985 185.516Z" fill="#2C285B"/>
<path d="M49.7341 147.718H187.096H188.834C188.834 147.718 189.92 148.152 189.92 150.325C189.92 152.714 188.834 153.004 188.834 153.004H187.096H128.444V167.558H187.096H188.834C188.834 167.558 189.92 167.993 189.92 170.165C189.92 172.554 188.834 172.844 188.834 172.844H187.096H49.7341C49.7341 172.844 43 170.744 43 160.245C43 150.325 49.7341 147.718 49.7341 147.718Z" fill="#F8700E"/>
<path d="M91.0095 167.631H184.925V153.076H91.0095C91.0095 153.076 86.7373 154.162 86.7373 160.39C86.7373 166.617 91.0095 167.631 91.0095 167.631Z" fill="white"/>
<path d="M184.925 156.262H113.746V157.71H184.925V156.262Z" fill="#D0D0D0"/>
<path d="M184.925 163.212H117.222V164.877H184.925V163.212Z" fill="#D0D0D0"/>
<path d="M43 160.317C43 150.325 49.7341 147.718 49.7341 147.718H87.2425C87.2425 147.718 80.5083 150.325 80.5083 160.317C80.5083 170.817 87.2425 172.916 87.2425 172.916H49.7341C49.7341 172.916 43 170.817 43 160.317Z" fill="#F2C94C"/>
<path d="M193.25 122.52H55.8884H54.1506C54.1506 122.52 53.0645 122.954 53.0645 125.126C53.0645 127.516 54.1506 127.805 54.1506 127.805H55.8884H114.54V142.36H55.8884H54.1506C54.1506 142.36 53.0645 142.794 53.0645 144.967C53.0645 147.356 54.1506 147.646 54.1506 147.646H55.8884H193.25C193.25 147.646 199.984 145.546 199.984 135.046C199.984 125.126 193.25 122.52 193.25 122.52Z" fill="#1A4D68"/>
<path d="M151.98 142.431H58.0645V127.877H151.98C151.98 127.877 156.252 128.963 156.252 135.19C156.252 141.418 151.98 142.431 151.98 142.431Z" fill="white"/>
<path d="M129.24 131.063H58.0605V132.512H129.24V131.063Z" fill="#D0D0D0"/>
<path d="M125.764 138.016H58.0605V139.681H125.764V138.016Z" fill="#D0D0D0"/>
<path d="M199.985 135.119C199.985 125.126 193.251 122.52 193.251 122.52H155.742C155.742 122.52 162.476 125.126 162.476 135.119C162.476 145.618 155.742 147.718 155.742 147.718H193.251C193.251 147.718 199.985 145.618 199.985 135.119Z" fill="#38A7DE"/>
<path d="M100.396 15.2066L88.7422 18.9414L120.985 119.548L132.639 115.813L100.396 15.2066Z" fill="#38A7DE"/>
<path d="M93.5101 21.376L89.8555 22.5469L90.0322 23.0985L93.6869 21.9276L93.5101 21.376Z" fill="#2C285B"/>
<path d="M92.8783 19.2662L89.2236 20.4375L89.4004 20.9891L93.0551 19.8179L92.8783 19.2662Z" fill="#2C285B"/>
<path d="M94.2539 23.6967L90.5996 24.8691L90.7766 25.4207L94.4309 24.2483L94.2539 23.6967Z" fill="#2C285B"/>
<path d="M95.1532 26.4308L91.5327 27.5894L91.3154 27.0101L95.0083 25.8516L95.1532 26.4308Z" fill="#2C285B"/>
<path d="M97.3789 27.5337L92.0693 29.2354L92.2461 29.787L97.5557 28.0853L97.3789 27.5337Z" fill="#2C285B"/>
<path d="M97.326 33.2365L93.7055 34.3951L93.4883 33.8158L97.1812 32.6572L97.326 33.2365Z" fill="#2C285B"/>
<path d="M96.4814 30.4852L92.8271 31.6572L93.0041 32.2088L96.6583 31.0368L96.4814 30.4852Z" fill="#2C285B"/>
<path d="M97.8525 34.9201L94.1982 36.0918L94.3751 36.6434L98.0294 35.4717L97.8525 34.9201Z" fill="#2C285B"/>
<path d="M98.7733 37.7267L95.1528 38.8853L94.9355 38.306L98.556 37.1475L98.7733 37.7267Z" fill="#2C285B"/>
<path d="M101.163 39.4631L95.8774 41.1285L95.6602 40.5492L100.946 38.8838L101.163 39.4631Z" fill="#2C285B"/>
<path d="M100.746 43.8127L97.0918 44.9844L97.2687 45.536L100.923 44.3643L100.746 43.8127Z" fill="#2C285B"/>
<path d="M100.222 42.2873L96.601 43.4458L96.3838 42.8666L100.077 41.708L100.222 42.2873Z" fill="#2C285B"/>
<path d="M101.495 46.1295L97.8408 47.3008L98.0176 47.8524L101.672 46.6812L101.495 46.1295Z" fill="#2C285B"/>
<path d="M102.211 48.2961L98.5566 49.4678L98.7335 50.0194L102.388 48.8478L102.211 48.2961Z" fill="#2C285B"/>
<path d="M104.554 49.9878L99.2441 51.6895L99.4209 52.2411L104.731 50.5394L104.554 49.9878Z" fill="#2C285B"/>
<path d="M104.373 55.1047L100.719 56.2764L100.896 56.828L104.55 55.6563L104.373 55.1047Z" fill="#2C285B"/>
<path d="M103.651 52.9436L99.9971 54.1152L100.174 54.6668L103.828 53.4952L103.651 52.9436Z" fill="#2C285B"/>
<path d="M105.103 57.3512L101.448 58.5225L101.625 59.0741L105.28 57.9028L105.103 57.3512Z" fill="#2C285B"/>
<path d="M105.763 59.6094L102.108 60.7803L102.285 61.3319L105.94 60.161L105.763 59.6094Z" fill="#2C285B"/>
<path d="M108.332 61.839L103.046 63.5769L102.829 62.9976L108.115 61.2598L108.332 61.839Z" fill="#2C285B"/>
<path d="M107.934 66.1783L104.279 67.3496L104.456 67.9013L108.111 66.73L107.934 66.1783Z" fill="#2C285B"/>
<path d="M107.197 64.0207L103.543 65.1924L103.72 65.744L107.374 64.5723L107.197 64.0207Z" fill="#2C285B"/>
<path d="M108.65 68.4282L104.996 69.6006L105.173 70.1522L108.827 68.9798L108.65 68.4282Z" fill="#2C285B"/>
<path d="M109.378 70.6698L105.724 71.8418L105.901 72.3934L109.555 71.2213L109.378 70.6698Z" fill="#2C285B"/>
<path d="M111.728 72.3687L106.418 74.0703L106.595 74.622L111.904 72.9203L111.728 72.3687Z" fill="#2C285B"/>
<path d="M111.663 78.0588L108.042 79.2173L107.897 78.6381L111.518 77.4795L111.663 78.0588Z" fill="#2C285B"/>
<path d="M110.827 75.3172L107.173 76.4893L107.35 77.0408L111.004 75.8688L110.827 75.3172Z" fill="#2C285B"/>
<path d="M112.281 79.7164L108.626 80.8877L108.803 81.4393L112.457 80.2681L112.281 79.7164Z" fill="#2C285B"/>
<path d="M112.92 81.9063L109.266 83.0771L109.442 83.6288L113.097 82.4579L112.92 81.9063Z" fill="#2C285B"/>
<path d="M115.5 84.2131L110.214 85.8785L109.997 85.2992L115.283 83.6338L115.5 84.2131Z" fill="#2C285B"/>
<path d="M115.106 88.6344L111.451 89.8057L111.628 90.3573L115.283 89.186L115.106 88.6344Z" fill="#2C285B"/>
<path d="M114.377 86.4649L110.723 87.6357L110.899 88.1874L114.554 87.0165L114.377 86.4649Z" fill="#2C285B"/>
<path d="M115.813 90.8846L112.159 92.0566L112.336 92.6082L115.99 91.4362L115.813 90.8846Z" fill="#2C285B"/>
<path d="M116.553 93.1201L112.898 94.291L113.075 94.8427L116.73 93.6718L116.553 93.1201Z" fill="#2C285B"/>
<path d="M118.905 94.8154L113.596 96.5176L113.773 97.0692L119.082 95.367L118.905 94.8154Z" fill="#2C285B"/>
<path d="M118.725 99.9287L115.07 101.1L115.247 101.651L118.902 100.48L118.725 99.9287Z" fill="#2C285B"/>
<path d="M118.009 97.7604L114.354 98.9316L114.531 99.4833L118.186 98.312L118.009 97.7604Z" fill="#2C285B"/>
<path d="M119.443 102.177L115.789 103.351L115.966 103.902L119.62 102.729L119.443 102.177Z" fill="#2C285B"/>
<path d="M120.163 104.341L116.508 105.511L116.684 106.062L120.339 104.893L120.163 104.341Z" fill="#2C285B"/>
<path d="M122.503 106.046L117.193 107.748L117.37 108.3L122.68 106.598L122.503 106.046Z" fill="#2C285B"/>
<path d="M99.5877 17.0653L99.0361 17.2422L130.394 115.012L130.945 114.835L99.5877 17.0653Z" fill="#2C285B"/>
<path d="M132.661 12.6709H122.668V83.6326H132.661V12.6709Z" fill="#F2C94C"/>
<path d="M132.661 12.6727L127.664 0.000976562L122.668 12.6727H132.661Z" fill="#D0D0D0"/>
<path d="M126.507 3.04122L127.665 0L128.824 3.04122C128.824 3.04122 127.955 3.98255 126.507 3.04122Z" fill="#2C285B"/>
<g opacity="0.5">
<path opacity="0.5" d="M128.896 12.6709H126.507V83.6326H128.896V12.6709Z" fill="#F8700E"/>
</g>
<path d="M143.091 44.0402L112.123 107.892L121.114 112.252L152.082 48.401L143.091 44.0402Z" fill="#F8700E"/>
<path d="M152.068 48.3707L153.154 34.8301L143.089 44.0261L152.068 48.3707Z" fill="#D0D0D0"/>
<path d="M150.765 37.0024L153.154 34.8301L152.937 38.0885C152.865 38.0161 151.706 38.523 150.765 37.0024Z" fill="#2C285B"/>
<path d="M146.551 45.7312L115.562 109.568L117.712 110.612L148.701 46.7747L146.551 45.7312Z" fill="#2C285B"/>
<path d="M141.06 120.201H106.737L101.307 63.1416H146.273L141.06 120.201Z" fill="#38A7DE"/>
<path d="M139.757 120.2H108.331V122.517H139.757V120.2Z" fill="white"/>
</g>
<path d="M241.58 87.7644C241.58 160.666 192.481 197.765 119.579 197.765C46.6777 197.765 1.57943 125.166 1.57943 52.2644C1.57943 -74.8387 102.74 139.147 211.131 72.7652C230.001 61.209 241.58 62.2454 241.58 87.7644Z" fill="#38A7DE" fill-opacity="0.1"/>
</svg>
