<svg width="22" height="24" viewBox="0 0 22 24" fill="none" xmlns="http://www.w3.org/2000/svg">
<path d="M8.11554 4.14415e-05C7.98157 0.0199641 7.85362 0.0691268 7.74077 0.144041C7.74077 0.144041 6.57308 0.878811 5.31769 1.67358C4.06231 2.46743 2.66569 3.3425 2.34631 3.51973C2.32661 3.52829 2.30721 3.53752 2.28816 3.54743C1.12877 4.26281 0.887848 5.43143 0.84631 6.08681C0.84354 6.11727 0.84631 6.1422 0.84631 6.1745C0.836156 6.42004 0.84631 6.57789 0.84631 6.57789V18.636C0.84631 20.388 2.88908 21.2308 4.82754 21.2308C5.47369 21.2308 6.11985 21.1265 6.67369 20.9419C7.04293 20.7573 7.30785 20.388 7.30785 20.0188V10.3265C7.30785 8.20343 7.76939 7.2065 9.154 6.37573C9.52323 6.19112 13.3946 3.51881 13.3946 3.51881C13.5792 3.3342 13.7694 2.95943 13.7694 2.6825V2.59573C13.7694 2.2265 13.5848 1.94404 13.3078 1.75943C13.0309 1.57481 12.6617 1.57481 12.3848 1.75943C12.2925 1.85173 6.6617 5.64281 5.46169 6.28896C4.26169 7.02743 3.142 7.20558 2.86508 6.83635C2.77923 6.7505 2.70446 6.48743 2.69246 6.23081V6.2022V6.17266C2.69339 5.92158 2.758 5.44896 3.26939 5.1342C3.78816 4.84527 5.07585 4.02281 6.32754 3.23081C6.85646 2.89573 6.922 2.85973 7.33646 2.59573C7.39102 2.82124 7.5285 3.01792 7.72152 3.14664C7.91455 3.27536 8.14897 3.32667 8.37812 3.29036C8.60727 3.25405 8.81434 3.13279 8.95812 2.9507C9.10189 2.76861 9.17183 2.53906 9.154 2.30773V0.923118C9.15504 0.791547 9.12793 0.661276 9.0745 0.541038C9.02107 0.420799 8.94255 0.313372 8.84421 0.225959C8.74587 0.138545 8.62998 0.0731647 8.50431 0.034201C8.37863 -0.00476268 8.24608 -0.0164095 8.11554 4.14415e-05ZM15.5002 3.23081C15.3534 3.25522 15.2147 3.31476 15.0958 3.40435C15.0958 3.40435 10.4491 6.53081 9.64416 7.06712C9.6344 7.07675 9.62486 7.0866 9.61554 7.09666C8.94723 7.59789 8.55123 8.1942 8.37493 8.73973C8.25031 9.1265 8.23185 9.44219 8.23093 9.69235V9.98127C8.22959 10.0099 8.22959 10.0385 8.23093 10.0671V21.2308C8.23093 22.9847 10.2506 24 12.0968 24C12.9275 24 13.6771 23.821 14.2309 23.4517C15.3386 22.8056 20.6925 18.6351 20.6925 18.6351C20.9694 18.4505 21.154 18.1902 21.154 17.9133V5.91327C21.154 5.45173 20.9749 5.17481 20.6057 4.9902C20.3288 4.80558 19.8737 4.89235 19.5968 5.07696C18.1198 6.18466 14.1442 9.31204 13.2211 9.86589C11.9288 10.6043 10.7112 10.789 10.2497 10.3274C10.0651 10.1428 10.0771 9.96927 10.0771 9.69235C10.0826 9.53358 10.1002 9.39696 10.1352 9.28804C10.1869 9.12743 10.2922 8.92989 10.6826 8.62527C10.7011 8.6105 10.6918 8.61143 10.7112 8.59666C11.3786 8.15081 13.4195 6.75973 14.7506 5.85512C14.826 6.05743 14.97 6.2269 15.1574 6.33406C15.3448 6.44122 15.5639 6.47929 15.7765 6.44165C15.9891 6.404 16.1818 6.29302 16.321 6.12801C16.4603 5.963 16.5373 5.75441 16.5386 5.5385V4.15389C16.5397 4.02232 16.5125 3.89205 16.4591 3.77181C16.4057 3.65157 16.3272 3.54414 16.2288 3.45673C16.1305 3.36931 16.0146 3.30393 15.8889 3.26497C15.7632 3.22601 15.6307 3.21436 15.5002 3.23081ZM19.3078 9.98127V11.8274L14.6925 15.4034V13.5573L19.3078 9.98127Z" fill="white"/>
</svg>
