<svg width="15" height="18" viewBox="0 0 15 18" fill="none" xmlns="http://www.w3.org/2000/svg">
<path d="M14.9725 9.51572C14.9167 9.38203 14.7866 9.29479 14.6422 9.29479H10.7248V0.357503C10.7248 0.160168 10.5646 0 10.3673 0H4.64741C4.45007 0 4.2899 0.160168 4.2899 0.357503V9.29482H0.3575C0.213084 9.29482 0.0829462 9.38206 0.0271774 9.51505C-0.0278876 9.64874 0.00214167 9.80247 0.104396 9.90473L7.23637 17.0603C7.30356 17.1275 7.39439 17.1654 7.48947 17.1654C7.58455 17.1654 7.67538 17.1275 7.74258 17.061L14.8953 9.90543C14.9975 9.80314 15.0283 9.64944 14.9725 9.51572Z" fill="#2B2A28" fill-opacity="0.25"/>
</svg>
