<svg width="31" height="32" viewBox="0 0 31 32" fill="none" xmlns="http://www.w3.org/2000/svg">
<rect width="31" height="32" rx="2" fill="#38A7DE" fill-opacity="0.15"/>
<path d="M22.9725 17.5157C22.9167 17.382 22.7866 17.2948 22.6422 17.2948H18.7248V8.3575C18.7248 8.16017 18.5646 8 18.3673 8H12.6474C12.4501 8 12.2899 8.16017 12.2899 8.3575V17.2948H8.3575C8.21308 17.2948 8.08295 17.3821 8.02718 17.515C7.97211 17.6487 8.00214 17.8025 8.1044 17.9047L15.2364 25.0603C15.3036 25.1275 15.3944 25.1654 15.4895 25.1654C15.5846 25.1654 15.6754 25.1275 15.7426 25.061L22.8953 17.9054C22.9975 17.8031 23.0283 17.6494 22.9725 17.5157Z" fill="#38A7DE"/>
</svg>
