<svg width="246" height="203" viewBox="0 0 246 203" fill="none" xmlns="http://www.w3.org/2000/svg">
<path opacity="0.1" d="M209.968 32.3842C229.552 86.7845 201.035 146.866 146.273 166.58C91.5113 186.294 31.2422 158.176 11.6582 103.775C-6.59427 53.0736 47.7382 82.9987 99.545 71.342C107.074 69.6478 113.606 65.1734 118.918 59.5749C164.141 11.9137 191.464 -19.0156 209.968 32.3842Z" fill="#38A7DE"/>
<g clip-path="url(#clip0)">
<path d="M61.8593 76.3926L96.5259 72.9259L123.489 86.0222L153.148 72.9259L183.963 76.3926L189.356 164.6H56.8519L61.8593 76.3926Z" fill="white"/>
<path d="M186.918 84.4234V75.6539L185.649 75.1473C185.205 74.989 174.896 71 161.13 71C146.381 71 133.662 75.4956 123.353 84.3285C113.012 75.4956 100.293 71 85.5438 71C71.7777 71 61.469 74.989 61.0249 75.179L59.7879 75.6855V83.8219C55.601 84.5501 53 85.9747 53 88.2225V171.897H114.725C116.85 173.829 119.991 175 123.48 175C126.969 175 130.109 173.797 132.234 171.897H192.437V88.2225C192.437 86.3863 190.344 85.1516 186.918 84.4234ZM122.687 165.312C117.548 163.191 99.9125 156.511 82.2133 156.511C75.2351 156.511 69.0499 157.556 63.7528 159.677V78.4082C66.8612 77.3951 75.2351 74.989 85.5438 74.989C99.1195 74.989 110.792 79.1047 120.308 87.0511V135.584L122.655 132.988V165.312H122.687ZM182.921 159.709C177.244 157.429 170.773 156.289 163.541 156.289C145.873 156.289 129.062 163.065 124.019 165.281V132.988L126.366 135.584V87.0511C135.882 79.0731 147.555 74.989 161.13 74.989C171.439 74.989 179.845 77.3951 182.921 78.4082V159.709Z" fill="#88CAEB"/>
<g filter="url(#filter0_d)">
<path fill-rule="evenodd" clip-rule="evenodd" d="M145.631 82.2016L149.832 75.1101L150.924 75.7547L146.723 82.8461C146.506 83.2128 146.706 83.6846 147.121 83.784L149.828 84.433C151.131 84.7455 151.711 86.2692 150.945 87.3666L145.705 94.8655C145.485 95.1808 145.595 95.6177 145.938 95.7921L150.185 97.949C151.352 98.5417 151.585 100.106 150.64 101.012L146.511 104.972C146.289 105.185 146.252 105.526 146.424 105.782L148.735 109.211C149.127 109.793 149.166 110.543 148.837 111.162L146.348 115.841C146.206 116.106 146.271 116.434 146.503 116.626L152.386 121.49C153.26 122.212 153.31 123.533 152.494 124.319L145.767 130.799C145.503 131.053 145.509 131.477 145.781 131.723L152.646 137.947C153.372 138.606 153.478 139.708 152.889 140.492L148.425 146.437C148.169 146.778 148.317 147.269 148.718 147.413L153.837 149.254C154.995 149.67 155.458 151.057 154.783 152.083L149.163 160.626L148.103 159.931L153.722 151.388C153.947 151.046 153.793 150.584 153.407 150.445L148.288 148.604C147.084 148.171 146.643 146.7 147.41 145.678L151.874 139.733C152.07 139.472 152.035 139.104 151.793 138.885L144.928 132.661C144.113 131.922 144.094 130.65 144.886 129.888L151.613 123.408C151.885 123.146 151.868 122.706 151.577 122.465L145.694 117.601C144.999 117.026 144.804 116.043 145.227 115.247L147.716 110.568C147.826 110.362 147.813 110.112 147.682 109.918L145.371 106.488C144.855 105.723 144.965 104.698 145.632 104.058L149.761 100.099C150.076 99.7968 149.999 99.2752 149.61 99.0777L145.362 96.9207C144.333 96.3977 144.004 95.0871 144.664 94.1412L149.904 86.6422C150.159 86.2764 149.966 85.7685 149.532 85.6644L146.824 85.0154C145.58 84.717 144.979 83.3015 145.631 82.2016Z" fill="#88CAEB"/>
</g>
</g>
<defs>
<filter id="filter0_d" x="143.304" y="73.1101" width="14.7919" height="89.5161" filterUnits="userSpaceOnUse" color-interpolation-filters="sRGB">
<feFlood flood-opacity="0" result="BackgroundImageFix"/>
<feColorMatrix in="SourceAlpha" type="matrix" values="0 0 0 0 0 0 0 0 0 0 0 0 0 0 0 0 0 0 127 0"/>
<feOffset dx="1"/>
<feGaussianBlur stdDeviation="1"/>
<feColorMatrix type="matrix" values="0 0 0 0 0.219608 0 0 0 0 0.654902 0 0 0 0 0.870588 0 0 0 0.42 0"/>
<feBlend mode="normal" in2="BackgroundImageFix" result="effect1_dropShadow"/>
<feBlend mode="normal" in="SourceGraphic" in2="effect1_dropShadow" result="shape"/>
</filter>
<clipPath id="clip0">
<rect x="53" y="71" width="139.437" height="104" fill="white"/>
</clipPath>
</defs>
</svg>
