<svg width="36" height="36" viewBox="0 0 36 36" fill="none" xmlns="http://www.w3.org/2000/svg">
<path d="M32.2694 7.03286C29.3399 3.22119 25.102 0.778704 20.335 0.154992C15.6151 -0.462447 10.9368 0.777697 7.14497 3.64601L5.77393 2.27304C5.38273 1.88137 5.02173 2.01234 4.97169 2.56309L4.52163 7.47797C4.47128 8.02872 4.88092 8.43921 5.43214 8.38949L10.3472 7.94539C10.8984 7.89582 11.0296 7.53451 10.6382 7.14284L9.21585 5.71875C12.3381 3.48143 16.1319 2.52406 19.9591 3.02478C23.9597 3.54811 27.5162 5.59801 29.9745 8.79673C32.4327 11.9952 33.4978 15.9593 32.9745 19.9591C32.6026 22.7998 31.4612 25.417 29.6851 27.5765C28.9604 28.4572 28.1301 29.262 27.2027 29.9745C24.0043 32.4328 20.0401 33.4982 16.0399 32.9748C12.0401 32.4515 8.48386 30.4016 6.02541 27.2032C3.63056 24.0875 2.55314 20.2215 2.9912 16.3175C3.08035 15.5231 2.50868 14.8066 1.71404 14.7178C0.919932 14.6283 0.203899 15.2003 0.11514 15.9947C-0.407653 20.6469 0.876637 25.2541 3.73031 28.967C6.65981 32.7786 10.8981 35.2213 15.6646 35.845C20.4309 36.4684 25.1546 35.1983 28.9668 32.2689C30.0709 31.4207 31.0609 30.4615 31.9244 29.4116C34.0416 26.8387 35.4016 23.7206 35.8448 20.335C36.4683 15.5683 35.1987 10.8443 32.2694 7.03286Z" fill="#38A7DE"/>
</svg>
