<svg width="41" height="45" viewBox="0 0 41 45" fill="none" xmlns="http://www.w3.org/2000/svg">
<path d="M30.243 12.3309L21.243 2.3309C20.864 1.9089 20.136 1.9089 19.757 2.3309L10.757 12.3309C10.6274 12.4745 10.5424 12.6526 10.5122 12.8437C10.482 13.0347 10.508 13.2304 10.587 13.4069C10.747 13.7679 11.105 13.9999 11.5 13.9999H13.5V20.9999C13.5 21.2651 13.6053 21.5195 13.7929 21.707C13.9804 21.8945 14.2348 21.9999 14.5 21.9999H17.5C17.7652 21.9999 18.0196 21.8945 18.2071 21.707C18.3946 21.5195 18.5 21.2651 18.5 20.9999V16.9999H22.5V20.9999C22.5 21.2651 22.6053 21.5195 22.7929 21.707C22.9804 21.8945 23.2348 21.9999 23.5 21.9999H26.5C26.7652 21.9999 27.0196 21.8945 27.2071 21.707C27.3946 21.5195 27.5 21.2651 27.5 20.9999V13.9999H29.5C29.6937 14.0007 29.8834 13.9452 30.046 13.8401C30.2087 13.7349 30.3372 13.5847 30.416 13.4078C30.4947 13.2309 30.5203 13.0348 30.4896 12.8436C30.4589 12.6524 30.3732 12.4743 30.243 12.3309Z" fill="#0D2938"/>
<path d="M9.20117 41H7.56055V36.4951H2.95312V41H1.31934V31.0059H2.95312V35.0938H7.56055V31.0059H9.20117V41ZM18.3682 37.2061C18.3682 38.4411 18.0514 39.4049 17.418 40.0977C16.7845 40.7904 15.9027 41.1367 14.7725 41.1367C14.0661 41.1367 13.4417 40.9772 12.8994 40.6582C12.3571 40.3392 11.9401 39.8812 11.6484 39.2842C11.3568 38.6872 11.2109 37.9945 11.2109 37.2061C11.2109 35.9801 11.5254 35.0231 12.1543 34.335C12.7832 33.6468 13.6696 33.3027 14.8135 33.3027C15.9072 33.3027 16.7731 33.6559 17.4111 34.3623C18.0492 35.0641 18.3682 36.012 18.3682 37.2061ZM12.8652 37.2061C12.8652 38.9515 13.5101 39.8242 14.7998 39.8242C16.0758 39.8242 16.7139 38.9515 16.7139 37.2061C16.7139 35.4788 16.0713 34.6152 14.7861 34.6152C14.1117 34.6152 13.6217 34.8385 13.3164 35.2852C13.0156 35.7318 12.8652 36.3721 12.8652 37.2061ZM26.5918 41H24.9785V36.3379C24.9785 35.7591 24.8691 35.3285 24.6504 35.0459C24.4316 34.7588 24.0898 34.6152 23.625 34.6152C23.0052 34.6152 22.5495 34.818 22.2578 35.2236C21.9707 35.6247 21.8271 36.2946 21.8271 37.2334V41H20.2207V33.4395H21.4785L21.7041 34.4307H21.7861C21.9958 34.0706 22.2988 33.7926 22.6953 33.5967C23.0964 33.4007 23.5361 33.3027 24.0146 33.3027C25.1768 33.3027 25.9469 33.6992 26.3252 34.4922H26.4346C26.6579 34.1185 26.9723 33.8268 27.3779 33.6172C27.7835 33.4076 28.2484 33.3027 28.7725 33.3027C29.6748 33.3027 30.3311 33.5306 30.7412 33.9863C31.1559 34.4421 31.3633 35.137 31.3633 36.0713V41H29.7568V36.3379C29.7568 35.7591 29.6452 35.3285 29.4219 35.0459C29.2031 34.7588 28.8613 34.6152 28.3965 34.6152C27.7721 34.6152 27.3141 34.8112 27.0225 35.2031C26.7354 35.5905 26.5918 36.1875 26.5918 36.9941V41ZM36.9072 41.1367C35.7314 41.1367 34.8109 40.7949 34.1455 40.1113C33.4847 39.4232 33.1543 38.4775 33.1543 37.2744C33.1543 36.0394 33.4619 35.0687 34.0771 34.3623C34.6924 33.6559 35.5378 33.3027 36.6133 33.3027C37.6113 33.3027 38.3997 33.6058 38.9785 34.2119C39.5573 34.818 39.8467 35.652 39.8467 36.7139V37.582H34.8086C34.8314 38.3158 35.0296 38.8809 35.4033 39.2773C35.777 39.6693 36.3034 39.8652 36.9824 39.8652C37.429 39.8652 37.8438 39.8242 38.2266 39.7422C38.6139 39.6556 39.0286 39.5143 39.4707 39.3184V40.624C39.0788 40.8109 38.6823 40.943 38.2812 41.0205C37.8802 41.098 37.4222 41.1367 36.9072 41.1367ZM36.6133 34.5195C36.1029 34.5195 35.6927 34.6813 35.3828 35.0049C35.0775 35.3285 34.8952 35.8001 34.8359 36.4199H38.2676C38.2585 35.7956 38.1081 35.3239 37.8164 35.0049C37.5247 34.6813 37.1237 34.5195 36.6133 34.5195Z" fill="#0D2938"/>
</svg>
