<svg width="11" height="11" viewBox="0 0 11 11" fill="none" xmlns="http://www.w3.org/2000/svg">
<path d="M10.5557 4.54395H0.44434C0.198945 4.54395 0 4.78238 0 5.07649C0 5.37062 0.198945 5.60903 0.44434 5.60903H10.5557C10.8011 5.60903 11 5.37062 11 5.07649C11 4.78238 10.8011 4.54395 10.5557 4.54395Z" fill="#38A7DE"/>
<path d="M1.07275 5.07692L4.55028 0.909093C4.72381 0.701118 4.72381 0.363936 4.55028 0.155961C4.37675 -0.0519872 4.09541 -0.0519872 3.92188 0.155961L0.130147 4.70034C-0.0433823 4.90832 -0.0433823 5.2455 0.130147 5.45347L3.92188 9.99786C4.00863 10.1019 4.12237 10.1538 4.23609 10.1538C4.34981 10.1538 4.46354 10.1019 4.5503 9.99786C4.72383 9.78988 4.72383 9.4527 4.5503 9.24473L1.07275 5.07692Z" fill="#38A7DE"/>
</svg>
