<svg width="12" height="12" viewBox="0 0 12 12" fill="none" xmlns="http://www.w3.org/2000/svg">
<path d="M10.7568 2.34429C9.78021 1.07373 8.3675 0.259568 6.7784 0.0516639C5.205 -0.154149 3.64549 0.259232 2.38147 1.21534L1.92443 0.757681C1.79402 0.627124 1.67368 0.670781 1.657 0.854365L1.50697 2.49266C1.49019 2.67624 1.62674 2.81307 1.81049 2.7965L3.44893 2.64846C3.63268 2.63194 3.67642 2.51151 3.54593 2.38095L3.0718 1.90625C4.11262 1.16048 5.37729 0.841354 6.65311 1.00826C7.98671 1.18271 9.17229 1.866 9.99177 2.93225C10.8112 3.99841 11.1663 5.31977 10.9918 6.65304C10.8678 7.59993 10.4874 8.47234 9.89528 9.19219C9.6537 9.48576 9.37693 9.75402 9.06778 9.99151C8.00158 10.8109 6.68011 11.1661 5.34662 10.9916C4.01327 10.8172 2.82779 10.1339 2.00826 9.06775C1.20993 8.02916 0.85077 6.74051 0.996799 5.43918C1.02652 5.17437 0.83595 4.93554 0.571053 4.90593C0.306336 4.87611 0.0676448 5.06677 0.0380568 5.33157C-0.136218 6.88232 0.291904 8.41804 1.24318 9.65568C2.21974 10.9262 3.63258 11.7405 5.2215 11.9483C6.81037 12.1561 8.38503 11.7328 9.65584 10.7563C10.0239 10.4736 10.3539 10.1538 10.6418 9.80387C11.3475 8.94623 11.8009 7.90687 11.9486 6.77835C12.1565 5.18945 11.7332 3.61477 10.7568 2.34429Z" fill="white"/>
</svg>
