<svg width="134" height="28" viewBox="0 0 134 28" fill="none" xmlns="http://www.w3.org/2000/svg">
<path d="M7.16893 7.98058C9.44951 7.98058 11.2641 8.53585 12.6126 9.64639C13.9809 10.7371 14.8436 12.1848 15.2005 13.9894H9.04297C8.78517 13.0375 8.11091 12.5616 7.0202 12.5616C6.40544 12.5616 6.09806 12.7995 6.09806 13.2755C6.09806 13.6126 6.3162 13.8704 6.75248 14.0489C7.2086 14.2274 7.92252 14.4158 8.89424 14.6141C10.1634 14.852 11.2442 15.1396 12.1366 15.4767C13.0488 15.794 13.8322 16.3195 14.4866 17.0533C15.141 17.787 15.4682 18.7885 15.4682 20.0577C15.4682 21.0493 15.1906 21.9317 14.6353 22.7051C14.0801 23.4786 13.267 24.0834 12.1961 24.5197C11.1252 24.956 9.86596 25.1741 8.41829 25.1741C5.9989 25.1741 4.07529 24.6585 2.64745 23.6273C1.21961 22.5961 0.337128 21.1087 0 19.1653H6.33603C6.45502 20.137 7.13919 20.6229 8.38855 20.6229C9.0628 20.6229 9.39993 20.3849 9.39993 19.909C9.39993 19.5322 9.17187 19.2545 8.71576 19.0761C8.25964 18.8976 7.52589 18.7191 6.51451 18.5406C5.22549 18.2828 4.15461 18.0052 3.30187 17.7077C2.46897 17.4103 1.73522 16.9046 1.10062 16.1906C0.46603 15.4767 0.148733 14.4951 0.148733 13.2457C0.148733 12.2343 0.416453 11.332 0.951892 10.5388C1.48733 9.74554 2.28057 9.12086 3.33162 8.66475C4.38267 8.20863 5.66177 7.98058 7.16893 7.98058Z" fill="white"/>
<path d="M22.6402 7.98058C23.7309 7.98058 24.663 8.20863 25.4364 8.66475C26.2296 9.10103 26.8345 9.70588 27.2509 10.4793V2.9534H33.8547V24.9659H27.2509V22.6754C26.8345 23.4488 26.2296 24.0636 25.4364 24.5197C24.663 24.956 23.7309 25.1741 22.6402 25.1741C21.3313 25.1741 20.1514 24.837 19.1003 24.1627C18.0493 23.4686 17.2164 22.4771 16.6016 21.1881C16.0067 19.8792 15.7092 18.3423 15.7092 16.5773C15.7092 14.8124 16.0067 13.2854 16.6016 11.9964C17.2164 10.6875 18.0493 9.69596 19.1003 9.02171C20.1514 8.32762 21.3313 7.98058 22.6402 7.98058ZM24.8414 13.7514C24.1275 13.7514 23.5425 13.9993 23.0864 14.4951C22.6303 14.9909 22.4022 15.6849 22.4022 16.5773C22.4022 17.4697 22.6303 18.1638 23.0864 18.6596C23.5425 19.1554 24.1275 19.4033 24.8414 19.4033C25.5554 19.4033 26.1404 19.1554 26.5965 18.6596C27.0526 18.1638 27.2807 17.4697 27.2807 16.5773C27.2807 15.6849 27.0526 14.9909 26.5965 14.4951C26.1404 13.9993 25.5554 13.7514 24.8414 13.7514Z" fill="white"/>
<path d="M42.2339 7.98058C44.5145 7.98058 46.329 8.53585 47.6776 9.64639C49.0459 10.7371 49.9085 12.1848 50.2655 13.9894H44.108C43.8502 13.0375 43.1759 12.5616 42.0852 12.5616C41.4704 12.5616 41.163 12.7995 41.163 13.2755C41.163 13.6126 41.3812 13.8704 41.8175 14.0489C42.2736 14.2274 42.9875 14.4158 43.9592 14.6141C45.2284 14.852 46.3092 15.1396 47.2016 15.4767C48.1138 15.794 48.8972 16.3195 49.5516 17.0533C50.206 17.787 50.5332 18.7885 50.5332 20.0577C50.5332 21.0493 50.2556 21.9317 49.7003 22.7051C49.1451 23.4786 48.332 24.0834 47.2611 24.5197C46.1902 24.956 44.9309 25.1741 43.4833 25.1741C41.0639 25.1741 39.1403 24.6585 37.7124 23.6273C36.2846 22.5961 35.4021 21.1087 35.065 19.1653H41.401C41.52 20.137 42.2042 20.6229 43.4535 20.6229C44.1278 20.6229 44.4649 20.3849 44.4649 19.909C44.4649 19.5322 44.2369 19.2545 43.7807 19.0761C43.3246 18.8976 42.5909 18.7191 41.5795 18.5406C40.2905 18.2828 39.2196 18.0052 38.3669 17.7077C37.534 17.4103 36.8002 16.9046 36.1656 16.1906C35.531 15.4767 35.2137 14.4951 35.2137 13.2457C35.2137 12.2343 35.4814 11.332 36.0169 10.5388C36.5523 9.74554 37.3456 9.12086 38.3966 8.66475C39.4477 8.20863 40.7268 7.98058 42.2339 7.98058Z" fill="white"/>
<path d="M58.2704 2.9534V24.9659H51.6666V2.9534H58.2704Z" fill="white"/>
<path d="M66.1016 7.98058C67.1923 7.98058 68.1343 8.20863 68.9276 8.66475C69.7208 9.10103 70.3257 9.70588 70.7421 10.4793V8.1888H77.3161V24.9659H70.7421V22.6754C70.3257 23.4488 69.7208 24.0636 68.9276 24.5197C68.1343 24.956 67.1923 25.1741 66.1016 25.1741C64.7928 25.1741 63.6128 24.837 62.5618 24.1627C61.5107 23.4686 60.6778 22.4771 60.0631 21.1881C59.4681 19.8792 59.1707 18.3423 59.1707 16.5773C59.1707 14.8124 59.4681 13.2854 60.0631 11.9964C60.6778 10.6875 61.5107 9.69596 62.5618 9.02171C63.6128 8.32762 64.7928 7.98058 66.1016 7.98058ZM68.3029 13.7514C67.589 13.7514 67.0039 13.9993 66.5478 14.4951C66.0917 14.9909 65.8637 15.6849 65.8637 16.5773C65.8637 17.4697 66.0917 18.1638 66.5478 18.6596C67.0039 19.1554 67.589 19.4033 68.3029 19.4033C69.0168 19.4033 69.6018 19.1554 70.0579 18.6596C70.514 18.1638 70.7421 17.4697 70.7421 16.5773C70.7421 15.6849 70.514 14.9909 70.0579 14.4951C69.6018 13.9993 69.0168 13.7514 68.3029 13.7514Z" fill="white"/>
<path d="M90.3061 7.98058C91.6149 7.98058 92.7949 8.32762 93.8459 9.02171C94.897 9.69596 95.72 10.6875 96.3149 11.9964C96.9297 13.2854 97.237 14.8124 97.237 16.5773C97.237 18.3423 96.9297 19.8792 96.3149 21.1881C95.72 22.4771 94.897 23.4686 93.8459 24.1627C92.7949 24.837 91.6149 25.1741 90.3061 25.1741C89.2154 25.1741 88.2734 24.956 87.4801 24.5197C86.7067 24.0636 86.1118 23.4488 85.6953 22.6754V24.9659H79.0916V2.9534H85.6953V10.4793C86.1118 9.70588 86.7067 9.10103 87.4801 8.66475C88.2734 8.20863 89.2154 7.98058 90.3061 7.98058ZM88.1048 13.7514C87.3909 13.7514 86.8059 13.9993 86.3498 14.4951C85.8937 14.9909 85.6656 15.6849 85.6656 16.5773C85.6656 17.4697 85.8937 18.1638 86.3498 18.6596C86.8059 19.1554 87.3909 19.4033 88.1048 19.4033C88.8187 19.4033 89.4038 19.1554 89.8599 18.6596C90.316 18.1638 90.5441 17.4697 90.5441 16.5773C90.5441 15.6849 90.316 14.9909 89.8599 14.4951C89.4038 13.9993 88.8187 13.7514 88.1048 13.7514Z" fill="white"/>
<path d="M104.724 7.98058C107.004 7.98058 108.819 8.53585 110.168 9.64639C111.536 10.7371 112.399 12.1848 112.755 13.9894H106.598C106.34 13.0375 105.666 12.5616 104.575 12.5616C103.96 12.5616 103.653 12.7995 103.653 13.2755C103.653 13.6126 103.871 13.8704 104.307 14.0489C104.764 14.2274 105.477 14.4158 106.449 14.6141C107.718 14.852 108.799 15.1396 109.692 15.4767C110.604 15.794 111.387 16.3195 112.042 17.0533C112.696 17.787 113.023 18.7885 113.023 20.0577C113.023 21.0493 112.746 21.9317 112.19 22.7051C111.635 23.4786 110.822 24.0834 109.751 24.5197C108.68 24.956 107.421 25.1741 105.973 25.1741C103.554 25.1741 101.63 24.6585 100.202 23.6273C98.7746 22.5961 97.8921 21.1087 97.555 19.1653H103.891C104.01 20.137 104.694 20.6229 105.943 20.6229C106.618 20.6229 106.955 20.3849 106.955 19.909C106.955 19.5322 106.727 19.2545 106.271 19.0761C105.815 18.8976 105.081 18.7191 104.069 18.5406C102.78 18.2828 101.71 18.0052 100.857 17.7077C100.024 17.4103 99.2902 16.9046 98.6556 16.1906C98.021 15.4767 97.7037 14.4951 97.7037 13.2457C97.7037 12.2343 97.9714 11.332 98.5068 10.5388C99.0423 9.74554 99.8355 9.12086 100.887 8.66475C101.938 8.20863 103.217 7.98058 104.724 7.98058Z" fill="white"/>
<path fill-rule="evenodd" clip-rule="evenodd" d="M134 0V27.6219H121.251V0H134Z" fill="#FF5851"/>
</svg>
