<svg width="108" height="22" viewBox="0 0 108 22" fill="none" xmlns="http://www.w3.org/2000/svg">
<path fill-rule="evenodd" clip-rule="evenodd" d="M108 0V22H98V0H108Z" fill="#FF5851"/>
<path d="M5.77203 6.07229C7.60822 6.07229 9.06919 6.52209 10.1549 7.42169C11.2567 8.30522 11.9512 9.47791 12.2386 10.9398H7.2809C7.07333 10.1687 6.53046 9.78313 5.65228 9.78313C5.1573 9.78313 4.90982 9.9759 4.90982 10.3614C4.90982 10.6345 5.08545 10.8434 5.43672 10.988C5.80396 11.1325 6.37877 11.2851 7.16115 11.4458C8.18303 11.6386 9.05322 11.8715 9.77173 12.1446C10.5062 12.4016 11.1369 12.8273 11.6638 13.4217C12.1907 14.0161 12.4542 14.8273 12.4542 15.8554C12.4542 16.6586 12.2306 17.3735 11.7836 18C11.3365 18.6265 10.6818 19.1165 9.81963 19.4699C8.95742 19.8233 7.94352 20 6.77794 20C4.82998 20 3.28119 19.5823 2.13158 18.747C0.981963 17.9116 0.271437 16.7068 0 15.1325H5.10142C5.19722 15.9197 5.74808 16.3133 6.75399 16.3133C7.29687 16.3133 7.5683 16.1205 7.5683 15.7349C7.5683 15.4297 7.38468 15.2048 7.01745 15.0602C6.65021 14.9157 6.05943 14.7711 5.24512 14.6265C4.20727 14.4177 3.34506 14.1928 2.65849 13.9518C1.98788 13.7108 1.3971 13.3012 0.886162 12.7229C0.375222 12.1446 0.119752 11.3494 0.119752 10.3373C0.119752 9.51807 0.335305 8.78715 0.76641 8.14458C1.19752 7.50201 1.83619 6.99598 2.68244 6.62651C3.52868 6.25703 4.55854 6.07229 5.77203 6.07229Z" fill="#191919"/>
<path d="M18.2286 6.07229C19.1068 6.07229 19.8573 6.25703 20.48 6.62651C21.1186 6.97992 21.6056 7.46988 21.9409 8.09639V2H27.2579V19.8313H21.9409V17.9759C21.6056 18.6024 21.1186 19.1004 20.48 19.4699C19.8573 19.8233 19.1068 20 18.2286 20C17.1748 20 16.2248 19.7269 15.3785 19.1807C14.5323 18.6185 13.8617 17.8153 13.3667 16.7711C12.8877 15.7108 12.6482 14.4659 12.6482 13.0361C12.6482 11.6064 12.8877 10.3695 13.3667 9.3253C13.8617 8.26506 14.5323 7.46185 15.3785 6.91566C16.2248 6.35341 17.1748 6.07229 18.2286 6.07229ZM20.001 10.747C19.4261 10.747 18.9551 10.9478 18.5879 11.3494C18.2206 11.751 18.037 12.3133 18.037 13.0361C18.037 13.759 18.2206 14.3213 18.5879 14.7229C18.9551 15.1245 19.4261 15.3253 20.001 15.3253C20.5758 15.3253 21.0468 15.1245 21.414 14.7229C21.7813 14.3213 21.9649 13.759 21.9649 13.0361C21.9649 12.3133 21.7813 11.751 21.414 11.3494C21.0468 10.9478 20.5758 10.747 20.001 10.747Z" fill="#191919"/>
<path d="M34.0044 6.07229C35.8406 6.07229 37.3016 6.52209 38.3873 7.42169C39.489 8.30522 40.1836 9.47791 40.471 10.9398H35.5133C35.3057 10.1687 34.7628 9.78313 33.8847 9.78313C33.3897 9.78313 33.1422 9.9759 33.1422 10.3614C33.1422 10.6345 33.3178 10.8434 33.6691 10.988C34.0363 11.1325 34.6111 11.2851 35.3935 11.4458C36.4154 11.6386 37.2856 11.8715 38.0041 12.1446C38.7386 12.4016 39.3693 12.8273 39.8962 13.4217C40.4231 14.0161 40.6865 14.8273 40.6865 15.8554C40.6865 16.6586 40.463 17.3735 40.0159 18C39.5689 18.6265 38.9142 19.1165 38.052 19.4699C37.1898 19.8233 36.1759 20 35.0103 20C33.0624 20 31.5136 19.5823 30.364 18.747C29.2143 17.9116 28.5038 16.7068 28.2324 15.1325H33.3338C33.4296 15.9197 33.9805 16.3133 34.9864 16.3133C35.5292 16.3133 35.8007 16.1205 35.8007 15.7349C35.8007 15.4297 35.6171 15.2048 35.2498 15.0602C34.8826 14.9157 34.2918 14.7711 33.4775 14.6265C32.4397 14.4177 31.5774 14.1928 30.8909 13.9518C30.2203 13.7108 29.6295 13.3012 29.1185 12.7229C28.6076 12.1446 28.3521 11.3494 28.3521 10.3373C28.3521 9.51807 28.5677 8.78715 28.9988 8.14458C29.4299 7.50201 30.0686 6.99598 30.9148 6.62651C31.7611 6.25703 32.7909 6.07229 34.0044 6.07229Z" fill="#191919"/>
<path d="M46.9161 2V19.8313H41.5991V2H46.9161Z" fill="#191919"/>
<path d="M53.2214 6.07229C54.0995 6.07229 54.858 6.25703 55.4966 6.62651C56.1353 6.97992 56.6223 7.46988 56.9576 8.09639V6.24096H62.2506V19.8313H56.9576V17.9759C56.6223 18.6024 56.1353 19.1004 55.4966 19.4699C54.858 19.8233 54.0995 20 53.2214 20C52.1675 20 51.2175 19.7269 50.3713 19.1807C49.525 18.6185 48.8544 17.8153 48.3594 16.7711C47.8804 15.7108 47.6409 14.4659 47.6409 13.0361C47.6409 11.6064 47.8804 10.3695 48.3594 9.3253C48.8544 8.26506 49.525 7.46185 50.3713 6.91566C51.2175 6.35341 52.1675 6.07229 53.2214 6.07229ZM54.9937 10.747C54.4189 10.747 53.9479 10.9478 53.5806 11.3494C53.2134 11.751 53.0298 12.3133 53.0298 13.0361C53.0298 13.759 53.2134 14.3213 53.5806 14.7229C53.9479 15.1245 54.4189 15.3253 54.9937 15.3253C55.5685 15.3253 56.0395 15.1245 56.4068 14.7229C56.774 14.3213 56.9576 13.759 56.9576 13.0361C56.9576 12.3133 56.774 11.751 56.4068 11.3494C56.0395 10.9478 55.5685 10.747 54.9937 10.747Z" fill="#191919"/>
<path d="M72.7094 6.07229C73.7633 6.07229 74.7133 6.35341 75.5595 6.91566C76.4058 7.46185 77.0684 8.26506 77.5474 9.3253C78.0424 10.3695 78.2899 11.6064 78.2899 13.0361C78.2899 14.4659 78.0424 15.7108 77.5474 16.7711C77.0684 17.8153 76.4058 18.6185 75.5595 19.1807C74.7133 19.7269 73.7633 20 72.7094 20C71.8313 20 71.0728 19.8233 70.4342 19.4699C69.8115 19.1004 69.3324 18.6024 68.9971 17.9759V19.8313H63.6802V2H68.9971V8.09639C69.3324 7.46988 69.8115 6.97992 70.4342 6.62651C71.0728 6.25703 71.8313 6.07229 72.7094 6.07229ZM70.9371 10.747C70.3623 10.747 69.8913 10.9478 69.524 11.3494C69.1568 11.751 68.9732 12.3133 68.9732 13.0361C68.9732 13.759 69.1568 14.3213 69.524 14.7229C69.8913 15.1245 70.3623 15.3253 70.9371 15.3253C71.5119 15.3253 71.9829 15.1245 72.3502 14.7229C72.7174 14.3213 72.901 13.759 72.901 13.0361C72.901 12.3133 72.7174 11.751 72.3502 11.3494C71.9829 10.9478 71.5119 10.747 70.9371 10.747Z" fill="#191919"/>
<path d="M84.3179 6.07229C86.1541 6.07229 87.615 6.52209 88.7008 7.42169C89.8025 8.30522 90.497 9.47791 90.7844 10.9398H85.8267C85.6192 10.1687 85.0763 9.78313 84.1981 9.78313C83.7031 9.78313 83.4557 9.9759 83.4557 10.3614C83.4557 10.6345 83.6313 10.8434 83.9826 10.988C84.3498 11.1325 84.9246 11.2851 85.707 11.4458C86.7289 11.6386 87.5991 11.8715 88.3176 12.1446C89.052 12.4016 89.6827 12.8273 90.2096 13.4217C90.7365 14.0161 91 14.8273 91 15.8554C91 16.6586 90.7765 17.3735 90.3294 18C89.8823 18.6265 89.2277 19.1165 88.3655 19.4699C87.5033 19.8233 86.4893 20 85.3238 20C83.3758 20 81.827 19.5823 80.6774 18.747C79.5278 17.9116 78.8173 16.7068 78.5458 15.1325H83.6473C83.7431 15.9197 84.2939 16.3133 85.2998 16.3133C85.8427 16.3133 86.1141 16.1205 86.1141 15.7349C86.1141 15.4297 85.9305 15.2048 85.5633 15.0602C85.196 14.9157 84.6053 14.7711 83.791 14.6265C82.7531 14.4177 81.8909 14.1928 81.2043 13.9518C80.5337 13.7108 79.9429 13.3012 79.432 12.7229C78.9211 12.1446 78.6656 11.3494 78.6656 10.3373C78.6656 9.51807 78.8811 8.78715 79.3122 8.14458C79.7433 7.50201 80.382 6.99598 81.2283 6.62651C82.0745 6.25703 83.1044 6.07229 84.3179 6.07229Z" fill="#191919"/>
</svg>
