<svg width="79" height="45" viewBox="0 0 79 45" fill="none" xmlns="http://www.w3.org/2000/svg">
<g clip-path="url(#clip0)">
<path d="M36.6154 4.14415e-05C36.4814 0.0199641 36.3535 0.0691268 36.2406 0.144041C36.2406 0.144041 35.0729 0.878811 33.8175 1.67358C32.5622 2.46743 31.1655 3.3425 30.8462 3.51973C30.8265 3.52829 30.8071 3.53752 30.788 3.54743C29.6286 4.26281 29.3877 5.43143 29.3462 6.08681C29.3434 6.11727 29.3462 6.1422 29.3462 6.1745C29.336 6.42004 29.3462 6.57789 29.3462 6.57789V18.636C29.3462 20.388 31.3889 21.2308 33.3274 21.2308C33.9735 21.2308 34.6197 21.1265 35.1735 20.9419C35.5428 20.7573 35.8077 20.388 35.8077 20.0188V10.3265C35.8077 8.20343 36.2692 7.2065 37.6538 6.37573C38.0231 6.19112 41.8945 3.51881 41.8945 3.51881C42.0791 3.3342 42.2692 2.95943 42.2692 2.6825V2.59573C42.2692 2.2265 42.0846 1.94404 41.8077 1.75943C41.5308 1.57481 41.1615 1.57481 40.8846 1.75943C40.7923 1.85173 35.1615 5.64281 33.9615 6.28896C32.7615 7.02743 31.6418 7.20558 31.3649 6.83635C31.2791 6.7505 31.2043 6.48743 31.1923 6.23081V6.2022V6.17266C31.1932 5.92158 31.2578 5.44896 31.7692 5.1342C32.288 4.84527 33.5757 4.02281 34.8274 3.23081C35.3563 2.89573 35.4219 2.85973 35.8363 2.59573C35.8909 2.82124 36.0283 3.01792 36.2214 3.14664C36.4144 3.27536 36.6488 3.32667 36.878 3.29036C37.1071 3.25405 37.3142 3.13279 37.458 2.9507C37.6017 2.76861 37.6717 2.53906 37.6538 2.30773V0.923118C37.6549 0.791547 37.6278 0.661276 37.5743 0.541038C37.5209 0.420799 37.4424 0.313372 37.3441 0.225959C37.2457 0.138545 37.1298 0.0731647 37.0042 0.034201C36.8785 -0.00476268 36.7459 -0.0164095 36.6154 4.14415e-05ZM44 3.23081C43.8532 3.25522 43.7145 3.31476 43.5957 3.40435C43.5957 3.40435 38.9489 6.53081 38.144 7.06712C38.1342 7.07675 38.1247 7.0866 38.1154 7.09666C37.4471 7.59789 37.0511 8.1942 36.8748 8.73973C36.7502 9.1265 36.7317 9.44219 36.7308 9.69235V9.98127C36.7294 10.0099 36.7294 10.0385 36.7308 10.0671V21.2308C36.7308 22.9847 38.7505 24 40.5966 24C41.4274 24 42.1769 23.821 42.7308 23.4517C43.8385 22.8056 49.1923 18.6351 49.1923 18.6351C49.4692 18.4505 49.6539 18.1902 49.6539 17.9133V5.91327C49.6539 5.45173 49.4748 5.17481 49.1055 4.9902C48.8286 4.80558 48.3735 4.89235 48.0966 5.07696C46.6197 6.18466 42.644 9.31204 41.7209 9.86589C40.4286 10.6043 39.2111 10.789 38.7495 10.3274C38.5649 10.1428 38.5769 9.96927 38.5769 9.69235C38.5825 9.53358 38.6 9.39696 38.6351 9.28804C38.6868 9.12743 38.792 8.92989 39.1825 8.62527C39.2009 8.6105 39.1917 8.61143 39.2111 8.59666C39.8785 8.15081 41.9194 6.75973 43.2505 5.85512C43.3259 6.05743 43.4698 6.2269 43.6573 6.33406C43.8447 6.44122 44.0638 6.47929 44.2764 6.44165C44.489 6.404 44.6816 6.29302 44.8209 6.12801C44.9601 5.963 45.0371 5.75441 45.0385 5.5385V4.15389C45.0395 4.02232 45.0124 3.89205 44.959 3.77181C44.9055 3.65157 44.827 3.54414 44.7287 3.45673C44.6303 3.36931 44.5144 3.30393 44.3888 3.26497C44.2631 3.22601 44.1305 3.21436 44 3.23081ZM47.8077 9.98127V11.8274L43.1923 15.4034V13.5573L47.8077 9.98127Z" fill="#0D2938"/>
</g>
<path d="M5.63965 41L2.74121 32.6533H2.68652C2.764 33.8929 2.80273 35.055 2.80273 36.1396V41H1.31934V31.0059H3.62305L6.39844 38.9561H6.43945L9.29688 31.0059H11.6074V41H10.0352V36.0576C10.0352 35.5609 10.0465 34.9137 10.0693 34.1162C10.0967 33.3187 10.1195 32.8356 10.1377 32.667H10.083L7.08203 41H5.63965ZM12.9199 33.4395H14.6699L16.208 37.7256C16.4404 38.3363 16.5954 38.9105 16.6729 39.4482H16.7275C16.7686 39.1976 16.8438 38.8945 16.9531 38.5391C17.0625 38.179 17.6413 36.4792 18.6895 33.4395H20.4258L17.1924 42.0049C16.6045 43.5771 15.6247 44.3633 14.2529 44.3633C13.8975 44.3633 13.5511 44.3245 13.2139 44.2471V42.9756C13.4554 43.0303 13.7311 43.0576 14.041 43.0576C14.8158 43.0576 15.3604 42.6087 15.6748 41.7109L15.9551 41L12.9199 33.4395ZM29.6338 32.2637C28.695 32.2637 27.9567 32.5964 27.4189 33.2617C26.8812 33.9271 26.6123 34.8454 26.6123 36.0166C26.6123 37.2425 26.8698 38.1699 27.3848 38.7988C27.9043 39.4277 28.654 39.7422 29.6338 39.7422C30.0576 39.7422 30.4678 39.7012 30.8643 39.6191C31.2607 39.5326 31.6732 39.4232 32.1016 39.291V40.6924C31.3177 40.9886 30.429 41.1367 29.4355 41.1367C27.9727 41.1367 26.8493 40.6947 26.0654 39.8105C25.2816 38.9219 24.8896 37.6527 24.8896 36.0029C24.8896 34.9639 25.0788 34.0547 25.457 33.2754C25.8398 32.4961 26.3913 31.8991 27.1113 31.4844C27.8314 31.0697 28.6768 30.8623 29.6475 30.8623C30.6683 30.8623 31.6117 31.0765 32.4775 31.5049L31.8896 32.8652C31.5524 32.7057 31.1947 32.5667 30.8164 32.4482C30.4427 32.3252 30.0485 32.2637 29.6338 32.2637ZM40.79 37.2061C40.79 38.4411 40.4733 39.4049 39.8398 40.0977C39.2064 40.7904 38.3245 41.1367 37.1943 41.1367C36.488 41.1367 35.8636 40.9772 35.3213 40.6582C34.779 40.3392 34.362 39.8812 34.0703 39.2842C33.7786 38.6872 33.6328 37.9945 33.6328 37.2061C33.6328 35.9801 33.9473 35.0231 34.5762 34.335C35.2051 33.6468 36.0915 33.3027 37.2354 33.3027C38.3291 33.3027 39.195 33.6559 39.833 34.3623C40.471 35.0641 40.79 36.012 40.79 37.2061ZM35.2871 37.2061C35.2871 38.9515 35.932 39.8242 37.2217 39.8242C38.4977 39.8242 39.1357 38.9515 39.1357 37.2061C39.1357 35.4788 38.4932 34.6152 37.208 34.6152C36.5335 34.6152 36.0436 34.8385 35.7383 35.2852C35.4375 35.7318 35.2871 36.3721 35.2871 37.2061ZM47.9746 41L47.749 40.0088H47.667C47.4437 40.3597 47.1247 40.6354 46.71 40.8359C46.2998 41.0365 45.8304 41.1367 45.3018 41.1367C44.3857 41.1367 43.7021 40.9089 43.251 40.4531C42.7998 39.9974 42.5742 39.307 42.5742 38.3818V33.4395H44.1943V38.1016C44.1943 38.6803 44.3128 39.1156 44.5498 39.4072C44.7868 39.6943 45.1582 39.8379 45.6641 39.8379C46.3385 39.8379 46.833 39.6374 47.1475 39.2363C47.4665 38.8307 47.626 38.154 47.626 37.2061V33.4395H49.2393V41H47.9746ZM55.3643 33.3027C55.6878 33.3027 55.9544 33.3255 56.1641 33.3711L56.0068 34.8682C55.779 34.8135 55.542 34.7861 55.2959 34.7861C54.6533 34.7861 54.1315 34.9958 53.7305 35.415C53.334 35.8343 53.1357 36.3789 53.1357 37.0488V41H51.5293V33.4395H52.7871L52.999 34.7725H53.0811C53.3317 34.3213 53.6576 33.9635 54.0586 33.6992C54.4642 33.4349 54.8994 33.3027 55.3643 33.3027ZM62.6514 38.8467C62.6514 39.585 62.3825 40.1523 61.8447 40.5488C61.307 40.9408 60.5368 41.1367 59.5342 41.1367C58.527 41.1367 57.7181 40.984 57.1074 40.6787V39.291C57.9961 39.7012 58.8232 39.9062 59.5889 39.9062C60.5778 39.9062 61.0723 39.6077 61.0723 39.0107C61.0723 38.8193 61.0176 38.6598 60.9082 38.5322C60.7988 38.4046 60.6188 38.2725 60.3682 38.1357C60.1175 37.999 59.7689 37.8441 59.3223 37.6709C58.4518 37.3337 57.8617 36.9964 57.5518 36.6592C57.2464 36.3219 57.0938 35.8844 57.0938 35.3467C57.0938 34.6995 57.3535 34.1982 57.873 33.8428C58.3971 33.4827 59.1081 33.3027 60.0059 33.3027C60.8945 33.3027 61.7354 33.4827 62.5283 33.8428L62.0088 35.0527C61.193 34.7155 60.5072 34.5469 59.9512 34.5469C59.1035 34.5469 58.6797 34.7884 58.6797 35.2715C58.6797 35.5085 58.7891 35.709 59.0078 35.873C59.2311 36.0371 59.7142 36.2627 60.457 36.5498C61.0814 36.7913 61.5348 37.0124 61.8174 37.2129C62.0999 37.4134 62.3096 37.6458 62.4463 37.9102C62.583 38.1699 62.6514 38.4821 62.6514 38.8467ZM67.6963 41.1367C66.5205 41.1367 65.5999 40.7949 64.9346 40.1113C64.2738 39.4232 63.9434 38.4775 63.9434 37.2744C63.9434 36.0394 64.251 35.0687 64.8662 34.3623C65.4814 33.6559 66.3268 33.3027 67.4023 33.3027C68.4004 33.3027 69.1888 33.6058 69.7676 34.2119C70.3464 34.818 70.6357 35.652 70.6357 36.7139V37.582H65.5977C65.6204 38.3158 65.8187 38.8809 66.1924 39.2773C66.5661 39.6693 67.0924 39.8652 67.7715 39.8652C68.2181 39.8652 68.6328 39.8242 69.0156 39.7422C69.403 39.6556 69.8177 39.5143 70.2598 39.3184V40.624C69.8678 40.8109 69.4714 40.943 69.0703 41.0205C68.6693 41.098 68.2113 41.1367 67.6963 41.1367ZM67.4023 34.5195C66.8919 34.5195 66.4818 34.6813 66.1719 35.0049C65.8665 35.3285 65.6842 35.8001 65.625 36.4199H69.0566C69.0475 35.7956 68.8971 35.3239 68.6055 35.0049C68.3138 34.6813 67.9128 34.5195 67.4023 34.5195ZM77.54 38.8467C77.54 39.585 77.2712 40.1523 76.7334 40.5488C76.1956 40.9408 75.4255 41.1367 74.4229 41.1367C73.4157 41.1367 72.6068 40.984 71.9961 40.6787V39.291C72.8848 39.7012 73.7119 39.9062 74.4775 39.9062C75.4665 39.9062 75.9609 39.6077 75.9609 39.0107C75.9609 38.8193 75.9062 38.6598 75.7969 38.5322C75.6875 38.4046 75.5075 38.2725 75.2568 38.1357C75.0062 37.999 74.6576 37.8441 74.2109 37.6709C73.3405 37.3337 72.7503 36.9964 72.4404 36.6592C72.1351 36.3219 71.9824 35.8844 71.9824 35.3467C71.9824 34.6995 72.2422 34.1982 72.7617 33.8428C73.2858 33.4827 73.9967 33.3027 74.8945 33.3027C75.7832 33.3027 76.624 33.4827 77.417 33.8428L76.8975 35.0527C76.0817 34.7155 75.3958 34.5469 74.8398 34.5469C73.9922 34.5469 73.5684 34.7884 73.5684 35.2715C73.5684 35.5085 73.6777 35.709 73.8965 35.873C74.1198 36.0371 74.6029 36.2627 75.3457 36.5498C75.9701 36.7913 76.4235 37.0124 76.7061 37.2129C76.9886 37.4134 77.1982 37.6458 77.335 37.9102C77.4717 38.1699 77.54 38.4821 77.54 38.8467Z" fill="#0D2938"/>
<defs>
<clipPath id="clip0">
<rect width="24" height="24" fill="white" transform="translate(27.5)"/>
</clipPath>
</defs>
</svg>
