<svg width="40" height="40" viewBox="0 0 40 40" fill="none" xmlns="http://www.w3.org/2000/svg">
<rect width="40" height="40" rx="20" fill="#EBF6FC"/>
<g clip-path="url(#clip0)">
<path d="M18.63 22.1C19.0107 21.2634 19.5525 20.51 20.2245 19.8828C20.8964 19.2556 21.6853 18.7669 22.5462 18.4447C23.407 18.1225 24.3229 17.973 25.2415 18.0048C26.1601 18.0366 27.0635 18.249 27.9 18.63C28.7366 19.0107 29.49 19.5525 30.1172 20.2245C30.7444 20.8964 31.2331 21.6853 31.5553 22.5462C31.8775 23.407 32.027 24.3229 31.9952 25.2415C31.9634 26.1601 31.751 27.0635 31.37 27.9C30.8156 29.1241 29.9196 30.1621 28.7896 30.8893C27.6596 31.6166 26.3438 32.0023 25 32C22.3 32 19.83 30.44 18.67 28H9V26C9.06 24.86 9.84 23.93 11.34 23.18C12.84 22.43 14.72 22.04 17 22C17.57 22 18.11 22.05 18.63 22.1V22.1ZM17 12C18.12 12.03 19.06 12.42 19.81 13.17C20.56 13.92 20.93 14.86 20.93 16C20.93 17.14 20.56 18.08 19.81 18.83C19.06 19.58 18.12 19.95 17 19.95C15.88 19.95 14.94 19.58 14.19 18.83C13.44 18.08 13.07 17.14 13.07 16C13.07 14.86 13.44 13.92 14.19 13.17C14.94 12.42 15.88 12.03 17 12ZM25 30C26.3261 30 27.5979 29.4732 28.5355 28.5355C29.4732 27.5979 30 26.3261 30 25C30 23.6739 29.4732 22.4021 28.5355 21.4645C27.5979 20.5268 26.3261 20 25 20C23.6739 20 22.4021 20.5268 21.4645 21.4645C20.5268 22.4021 20 23.6739 20 25C20 26.3261 20.5268 27.5979 21.4645 28.5355C22.4021 29.4732 23.6739 30 25 30ZM24 22H25.5V24.82L27.94 26.23L27.19 27.53L24 25.69V22Z" fill="#65BBE5"/>
</g>
<defs>
<clipPath id="clip0">
<rect width="24" height="24" fill="white" transform="translate(8 8)"/>
</clipPath>
</defs>
</svg>
