<svg width="40" height="40" viewBox="0 0 40 40" fill="none" xmlns="http://www.w3.org/2000/svg">
<rect width="40" height="40" rx="20" fill="#EBF6FC"/>
<g clip-path="url(#clip0)">
<path d="M17.1154 7.99992C16.9814 8.01984 16.8535 8.069 16.7406 8.14392C16.7406 8.14392 15.5729 8.87869 14.3175 9.67346C13.0622 10.4673 11.6655 11.3424 11.3462 11.5196C11.3265 11.5282 11.3071 11.5374 11.288 11.5473C10.1286 12.2627 9.8877 13.4313 9.84616 14.0867C9.84339 14.1172 9.84616 14.1421 9.84616 14.1744C9.836 14.4199 9.84616 14.5778 9.84616 14.5778V26.6359C9.84616 28.3879 11.8889 29.2307 13.8274 29.2307C14.4735 29.2307 15.1197 29.1264 15.6735 28.9418C16.0428 28.7572 16.3077 28.3879 16.3077 28.0187V18.3264C16.3077 16.2033 16.7692 15.2064 18.1538 14.3756C18.5231 14.191 22.3945 11.5187 22.3945 11.5187C22.5791 11.3341 22.7692 10.9593 22.7692 10.6824V10.5956C22.7692 10.2264 22.5846 9.94392 22.3077 9.7593C22.0308 9.57469 21.6615 9.57469 21.3846 9.7593C21.2923 9.85161 15.6615 13.6427 14.4615 14.2888C13.2615 15.0273 12.1418 15.2055 11.8649 14.8362C11.7791 14.7504 11.7043 14.4873 11.6923 14.2307V14.2021V14.1725C11.6932 13.9215 11.7578 13.4488 12.2692 13.1341C12.788 12.8451 14.0757 12.0227 15.3274 11.2307C15.8563 10.8956 15.9219 10.8596 16.3363 10.5956C16.3909 10.8211 16.5283 11.0178 16.7214 11.1465C16.9144 11.2752 17.1488 11.3266 17.378 11.2902C17.6071 11.2539 17.8142 11.1327 17.958 10.9506C18.1017 10.7685 18.1717 10.5389 18.1538 10.3076V8.923C18.1549 8.79143 18.1278 8.66115 18.0743 8.54092C18.0209 8.42068 17.9424 8.31325 17.8441 8.22584C17.7457 8.13842 17.6298 8.07304 17.5042 8.03408C17.3785 7.99512 17.2459 7.98347 17.1154 7.99992ZM24.5 11.2307C24.3532 11.2551 24.2145 11.3146 24.0957 11.4042C24.0957 11.4042 19.4489 14.5307 18.644 15.067C18.6342 15.0766 18.6247 15.0865 18.6154 15.0965C17.9471 15.5978 17.5511 16.1941 17.3748 16.7396C17.2502 17.1264 17.2317 17.4421 17.2308 17.6922V17.9811C17.2294 18.0097 17.2294 18.0384 17.2308 18.067V29.2307C17.2308 30.9845 19.2505 31.9999 21.0966 31.9999C21.9274 31.9999 22.6769 31.8208 23.2308 31.4516C24.3385 30.8055 29.6923 26.635 29.6923 26.635C29.9692 26.4504 30.1539 26.1901 30.1539 25.9132V13.9132C30.1539 13.4516 29.9748 13.1747 29.6055 12.9901C29.3286 12.8055 28.8735 12.8922 28.5966 13.0768C27.1197 14.1845 23.144 17.3119 22.2209 17.8658C20.9286 18.6042 19.7111 18.7888 19.2495 18.3273C19.0649 18.1427 19.0769 17.9691 19.0769 17.6922C19.0825 17.5335 19.1 17.3968 19.1351 17.2879C19.1868 17.1273 19.292 16.9298 19.6825 16.6251C19.7009 16.6104 19.6917 16.6113 19.7111 16.5965C20.3785 16.1507 22.4194 14.7596 23.7505 13.855C23.8259 14.0573 23.9698 14.2268 24.1573 14.3339C24.3447 14.4411 24.5638 14.4792 24.7764 14.4415C24.989 14.4039 25.1816 14.2929 25.3209 14.1279C25.4601 13.9629 25.5371 13.7543 25.5385 13.5384V12.1538C25.5395 12.0222 25.5124 11.8919 25.459 11.7717C25.4055 11.6514 25.327 11.544 25.2287 11.4566C25.1303 11.3692 25.0144 11.3038 24.8888 11.2648C24.7631 11.2259 24.6305 11.2142 24.5 11.2307ZM28.3077 17.9811V19.8273L23.6923 23.4033V21.5571L28.3077 17.9811Z" fill="#38A7DE" fill-opacity="0.75"/>
</g>
<defs>
<clipPath id="clip0">
<rect width="24" height="24" fill="white" transform="translate(8 8)"/>
</clipPath>
</defs>
</svg>
