<svg width="41" height="45" viewBox="0 0 41 45" fill="none" xmlns="http://www.w3.org/2000/svg">
<path d="M20.5 22C21.6 22 22.5 21.1 22.5 20H18.5C18.5 20.5304 18.7107 21.0391 19.0858 21.4142C19.4609 21.7893 19.9696 22 20.5 22ZM26.5 16V11C26.5 7.93 24.86 5.36 22 4.68V4C22 3.17 21.33 2.5 20.5 2.5C19.67 2.5 19 3.17 19 4V4.68C16.13 5.36 14.5 7.92 14.5 11V16L12.5 18V19H28.5V18L26.5 16Z" fill="#0D2938"/>
<circle cx="26" cy="6.5" r="4.5" fill="#FF4734"/>
<path d="M9.64551 41H7.64258L2.72754 33.0361H2.67285L2.70703 33.4805C2.77083 34.3281 2.80273 35.1029 2.80273 35.8047V41H1.31934V31.0059H3.30176L8.20312 38.9287H8.24414C8.23503 38.8239 8.2168 38.4434 8.18945 37.7871C8.16211 37.1263 8.14844 36.6113 8.14844 36.2422V31.0059H9.64551V41ZM18.8193 37.2061C18.8193 38.4411 18.5026 39.4049 17.8691 40.0977C17.2357 40.7904 16.3538 41.1367 15.2236 41.1367C14.5173 41.1367 13.8929 40.9772 13.3506 40.6582C12.8083 40.3392 12.3913 39.8812 12.0996 39.2842C11.8079 38.6872 11.6621 37.9945 11.6621 37.2061C11.6621 35.9801 11.9766 35.0231 12.6055 34.335C13.2344 33.6468 14.1208 33.3027 15.2646 33.3027C16.3584 33.3027 17.2243 33.6559 17.8623 34.3623C18.5003 35.0641 18.8193 36.012 18.8193 37.2061ZM13.3164 37.2061C13.3164 38.9515 13.9613 39.8242 15.251 39.8242C16.527 39.8242 17.165 38.9515 17.165 37.2061C17.165 35.4788 16.5225 34.6152 15.2373 34.6152C14.5628 34.6152 14.0729 34.8385 13.7676 35.2852C13.4668 35.7318 13.3164 36.3721 13.3164 37.2061ZM23.4883 39.8379C23.8802 39.8379 24.2721 39.7764 24.6641 39.6533V40.8633C24.4863 40.9408 24.2562 41.0046 23.9736 41.0547C23.6956 41.1094 23.4062 41.1367 23.1055 41.1367C21.5833 41.1367 20.8223 40.3346 20.8223 38.7305V34.6562H19.79V33.9453L20.8975 33.3574L21.4443 31.7578H22.4355V33.4395H24.5889V34.6562H22.4355V38.7031C22.4355 39.0905 22.5312 39.3776 22.7227 39.5645C22.9186 39.7467 23.1738 39.8379 23.4883 39.8379ZM27.7881 41H26.1816V33.4395H27.7881V41ZM26.0859 31.4365C26.0859 31.1494 26.1634 30.9284 26.3184 30.7734C26.4779 30.6185 26.7035 30.541 26.9951 30.541C27.2777 30.541 27.4964 30.6185 27.6514 30.7734C27.8109 30.9284 27.8906 31.1494 27.8906 31.4365C27.8906 31.71 27.8109 31.9264 27.6514 32.0859C27.4964 32.2409 27.2777 32.3184 26.9951 32.3184C26.7035 32.3184 26.4779 32.2409 26.3184 32.0859C26.1634 31.9264 26.0859 31.71 26.0859 31.4365ZM33.8857 34.6562H32.04V41H30.4268V34.6562H29.1826V33.9043L30.4268 33.4121V32.9199C30.4268 32.0267 30.6364 31.3659 31.0557 30.9375C31.4749 30.5046 32.1152 30.2881 32.9766 30.2881C33.5417 30.2881 34.0977 30.3815 34.6445 30.5684L34.2207 31.7852C33.8242 31.6576 33.446 31.5938 33.0859 31.5938C32.7214 31.5938 32.4548 31.7077 32.2861 31.9355C32.1221 32.1589 32.04 32.4961 32.04 32.9473V33.4395H33.8857V34.6562ZM40.2568 38.8467C40.2568 39.585 39.988 40.1523 39.4502 40.5488C38.9124 40.9408 38.1423 41.1367 37.1396 41.1367C36.1325 41.1367 35.3236 40.984 34.7129 40.6787V39.291C35.6016 39.7012 36.4287 39.9062 37.1943 39.9062C38.1833 39.9062 38.6777 39.6077 38.6777 39.0107C38.6777 38.8193 38.623 38.6598 38.5137 38.5322C38.4043 38.4046 38.2243 38.2725 37.9736 38.1357C37.723 37.999 37.3743 37.8441 36.9277 37.6709C36.0573 37.3337 35.4671 36.9964 35.1572 36.6592C34.8519 36.3219 34.6992 35.8844 34.6992 35.3467C34.6992 34.6995 34.959 34.1982 35.4785 33.8428C36.0026 33.4827 36.7135 33.3027 37.6113 33.3027C38.5 33.3027 39.3408 33.4827 40.1338 33.8428L39.6143 35.0527C38.7985 34.7155 38.1126 34.5469 37.5566 34.5469C36.709 34.5469 36.2852 34.7884 36.2852 35.2715C36.2852 35.5085 36.3945 35.709 36.6133 35.873C36.8366 36.0371 37.3197 36.2627 38.0625 36.5498C38.6868 36.7913 39.1403 37.0124 39.4229 37.2129C39.7054 37.4134 39.915 37.6458 40.0518 37.9102C40.1885 38.1699 40.2568 38.4821 40.2568 38.8467Z" fill="#0D2938"/>
</svg>
