<svg width="40" height="40" viewBox="0 0 40 40" fill="none" xmlns="http://www.w3.org/2000/svg">
<rect width="40" height="40" rx="20" fill="#EBF6FC"/>
<path d="M29 14.5C29 16.43 27.43 18 25.5 18C23.57 18 22 16.43 22 14.5C22 12.57 23.57 11 25.5 11C27.43 11 29 12.57 29 14.5ZM27 19.79C26.5 19.92 26 20 25.5 20C24.0421 19.9974 22.6447 19.4171 21.6138 18.3862C20.583 17.3553 20.0026 15.9579 20 14.5C20 13.03 20.58 11.7 21.5 10.71C21.3185 10.4875 21.0897 10.3084 20.8302 10.1855C20.5707 10.0627 20.2871 9.99934 20 10C18.9 10 18 10.9 18 12V12.29C15.03 13.17 13 15.9 13 19V25L11 27V28H29V27L27 25V19.79ZM20 31C21.11 31 22 30.11 22 29H18C18 29.5304 18.2107 30.0391 18.5858 30.4142C18.9609 30.7893 19.4696 31 20 31Z" fill="#65BBE5"/>
</svg>
