<svg width="20" height="18" viewBox="0 0 20 18" fill="none" xmlns="http://www.w3.org/2000/svg">
<path d="M1 12V16C1 16.5523 1.44772 17 2 17H18C18.5523 17 19 16.5523 19 16V12" stroke="white" stroke-width="1.5" stroke-linecap="round" stroke-linejoin="round"/>
<path d="M9.46967 12.5303C9.76256 12.8232 10.2374 12.8232 10.5303 12.5303L15.3033 7.75736C15.5962 7.46447 15.5962 6.98959 15.3033 6.6967C15.0104 6.40381 14.5355 6.40381 14.2426 6.6967L10 10.9393L5.75736 6.6967C5.46447 6.40381 4.98959 6.40381 4.6967 6.6967C4.40381 6.98959 4.40381 7.46447 4.6967 7.75736L9.46967 12.5303ZM9.25 0V12H10.75V0L9.25 0Z" fill="white"/>
</svg>
