<svg width="89" height="45" viewBox="0 0 89 45" fill="none" xmlns="http://www.w3.org/2000/svg">
<path d="M41 18L44.5 22L48 18H51.5C52.603 18 53.5 17.103 53.5 16V4C53.5 2.897 52.603 2 51.5 2H37.5C36.397 2 35.5 2.897 35.5 4V16C35.5 17.103 36.397 18 37.5 18H41ZM39.5 9H43.5V5H45.5V9H49.5V11H45.5V15H43.5V11H39.5V9Z" fill="#0D2938"/>
<path d="M2.95312 35.6543H4.08789C4.84896 35.6543 5.40039 35.513 5.74219 35.2305C6.08398 34.9479 6.25488 34.5286 6.25488 33.9727C6.25488 33.4076 6.07031 33.002 5.70117 32.7559C5.33203 32.5098 4.77604 32.3867 4.0332 32.3867H2.95312V35.6543ZM2.95312 37.0078V41H1.31934V31.0059H4.14258C5.43229 31.0059 6.38704 31.2474 7.00684 31.7305C7.62663 32.2135 7.93652 32.9427 7.93652 33.918C7.93652 35.1621 7.28939 36.0485 5.99512 36.5771L8.81836 41H6.95898L4.56641 37.0078H2.95312ZM13.4053 41.1367C12.2295 41.1367 11.3089 40.7949 10.6436 40.1113C9.98275 39.4232 9.65234 38.4775 9.65234 37.2744C9.65234 36.0394 9.95996 35.0687 10.5752 34.3623C11.1904 33.6559 12.0358 33.3027 13.1113 33.3027C14.1094 33.3027 14.8978 33.6058 15.4766 34.2119C16.0553 34.818 16.3447 35.652 16.3447 36.7139V37.582H11.3066C11.3294 38.3158 11.5277 38.8809 11.9014 39.2773C12.2751 39.6693 12.8014 39.8652 13.4805 39.8652C13.9271 39.8652 14.3418 39.8242 14.7246 39.7422C15.112 39.6556 15.5267 39.5143 15.9688 39.3184V40.624C15.5768 40.8109 15.1803 40.943 14.7793 41.0205C14.3783 41.098 13.9202 41.1367 13.4053 41.1367ZM13.1113 34.5195C12.6009 34.5195 12.1908 34.6813 11.8809 35.0049C11.5755 35.3285 11.3932 35.8001 11.334 36.4199H14.7656C14.7565 35.7956 14.6061 35.3239 14.3145 35.0049C14.0228 34.6813 13.6217 34.5195 13.1113 34.5195ZM21.1641 39.8516C21.8385 39.8516 22.3216 39.6579 22.6133 39.2705C22.9095 38.8786 23.0576 38.2884 23.0576 37.5V37.2471C23.0576 36.3128 22.9049 35.6406 22.5996 35.2305C22.2988 34.8203 21.8112 34.6152 21.1367 34.6152C20.5625 34.6152 20.125 34.8431 19.8242 35.2988C19.5234 35.7546 19.373 36.4085 19.373 37.2607C19.373 38.988 19.9701 39.8516 21.1641 39.8516ZM20.7061 41.1367C19.7718 41.1367 19.0404 40.7949 18.5117 40.1113C17.9831 39.4232 17.7188 38.4639 17.7188 37.2334C17.7188 36.0029 17.9876 35.0413 18.5254 34.3486C19.0632 33.6514 19.8037 33.3027 20.7471 33.3027C21.221 33.3027 21.6449 33.3916 22.0186 33.5693C22.3968 33.7425 22.734 34.0296 23.0303 34.4307H23.085L23.2627 33.4395H24.5957V44.3633H22.9824V41.1572C22.9824 40.9567 22.9915 40.7448 23.0098 40.5215C23.028 40.2982 23.0439 40.1273 23.0576 40.0088H22.9688C22.4948 40.7607 21.7406 41.1367 20.7061 41.1367ZM32.2246 41L31.999 40.0088H31.917C31.6937 40.3597 31.3747 40.6354 30.96 40.8359C30.5498 41.0365 30.0804 41.1367 29.5518 41.1367C28.6357 41.1367 27.9521 40.9089 27.501 40.4531C27.0498 39.9974 26.8242 39.307 26.8242 38.3818V33.4395H28.4443V38.1016C28.4443 38.6803 28.5628 39.1156 28.7998 39.4072C29.0368 39.6943 29.4082 39.8379 29.9141 39.8379C30.5885 39.8379 31.083 39.6374 31.3975 39.2363C31.7165 38.8307 31.876 38.154 31.876 37.2061V33.4395H33.4893V41H32.2246ZM39.0811 41.1367C37.9053 41.1367 36.9847 40.7949 36.3193 40.1113C35.6585 39.4232 35.3281 38.4775 35.3281 37.2744C35.3281 36.0394 35.6357 35.0687 36.251 34.3623C36.8662 33.6559 37.7116 33.3027 38.7871 33.3027C39.7852 33.3027 40.5736 33.6058 41.1523 34.2119C41.7311 34.818 42.0205 35.652 42.0205 36.7139V37.582H36.9824C37.0052 38.3158 37.2035 38.8809 37.5771 39.2773C37.9508 39.6693 38.4772 39.8652 39.1562 39.8652C39.6029 39.8652 40.0176 39.8242 40.4004 39.7422C40.7878 39.6556 41.2025 39.5143 41.6445 39.3184V40.624C41.2526 40.8109 40.8561 40.943 40.4551 41.0205C40.054 41.098 39.596 41.1367 39.0811 41.1367ZM38.7871 34.5195C38.2767 34.5195 37.8665 34.6813 37.5566 35.0049C37.2513 35.3285 37.069 35.8001 37.0098 36.4199H40.4414C40.4323 35.7956 40.2819 35.3239 39.9902 35.0049C39.6986 34.6813 39.2975 34.5195 38.7871 34.5195ZM48.9248 38.8467C48.9248 39.585 48.6559 40.1523 48.1182 40.5488C47.5804 40.9408 46.8102 41.1367 45.8076 41.1367C44.8005 41.1367 43.9915 40.984 43.3809 40.6787V39.291C44.2695 39.7012 45.0967 39.9062 45.8623 39.9062C46.8512 39.9062 47.3457 39.6077 47.3457 39.0107C47.3457 38.8193 47.291 38.6598 47.1816 38.5322C47.0723 38.4046 46.8923 38.2725 46.6416 38.1357C46.391 37.999 46.0423 37.8441 45.5957 37.6709C44.7253 37.3337 44.1351 36.9964 43.8252 36.6592C43.5199 36.3219 43.3672 35.8844 43.3672 35.3467C43.3672 34.6995 43.627 34.1982 44.1465 33.8428C44.6706 33.4827 45.3815 33.3027 46.2793 33.3027C47.168 33.3027 48.0088 33.4827 48.8018 33.8428L48.2822 35.0527C47.4665 34.7155 46.7806 34.5469 46.2246 34.5469C45.377 34.5469 44.9531 34.7884 44.9531 35.2715C44.9531 35.5085 45.0625 35.709 45.2812 35.873C45.5046 36.0371 45.9876 36.2627 46.7305 36.5498C47.3548 36.7913 47.8083 37.0124 48.0908 37.2129C48.3734 37.4134 48.583 37.6458 48.7197 37.9102C48.8564 38.1699 48.9248 38.4821 48.9248 38.8467ZM53.4844 39.8379C53.8763 39.8379 54.2682 39.7764 54.6602 39.6533V40.8633C54.4824 40.9408 54.2523 41.0046 53.9697 41.0547C53.6917 41.1094 53.4023 41.1367 53.1016 41.1367C51.5794 41.1367 50.8184 40.3346 50.8184 38.7305V34.6562H49.7861V33.9453L50.8936 33.3574L51.4404 31.7578H52.4316V33.4395H54.585V34.6562H52.4316V38.7031C52.4316 39.0905 52.5273 39.3776 52.7188 39.5645C52.9147 39.7467 53.1699 39.8379 53.4844 39.8379ZM61.6055 41H59.9854V31.0059H65.625V32.3867H61.6055V35.5107H65.3721V36.8984H61.6055V41ZM68.8721 41H67.2656V33.4395H68.8721V41ZM67.1699 31.4365C67.1699 31.1494 67.2474 30.9284 67.4023 30.7734C67.5618 30.6185 67.7874 30.541 68.0791 30.541C68.3617 30.541 68.5804 30.6185 68.7354 30.7734C68.8949 30.9284 68.9746 31.1494 68.9746 31.4365C68.9746 31.71 68.8949 31.9264 68.7354 32.0859C68.5804 32.2409 68.3617 32.3184 68.0791 32.3184C67.7874 32.3184 67.5618 32.2409 67.4023 32.0859C67.2474 31.9264 67.1699 31.71 67.1699 31.4365ZM72.7822 41H71.1758V30.3633H72.7822V41ZM78.3877 41.1367C77.2119 41.1367 76.2913 40.7949 75.626 40.1113C74.9652 39.4232 74.6348 38.4775 74.6348 37.2744C74.6348 36.0394 74.9424 35.0687 75.5576 34.3623C76.1729 33.6559 77.0182 33.3027 78.0938 33.3027C79.0918 33.3027 79.8802 33.6058 80.459 34.2119C81.0378 34.818 81.3271 35.652 81.3271 36.7139V37.582H76.2891C76.3118 38.3158 76.5101 38.8809 76.8838 39.2773C77.2575 39.6693 77.7839 39.8652 78.4629 39.8652C78.9095 39.8652 79.3242 39.8242 79.707 39.7422C80.0944 39.6556 80.5091 39.5143 80.9512 39.3184V40.624C80.5592 40.8109 80.1628 40.943 79.7617 41.0205C79.3607 41.098 78.9027 41.1367 78.3877 41.1367ZM78.0938 34.5195C77.5833 34.5195 77.1732 34.6813 76.8633 35.0049C76.5579 35.3285 76.3757 35.8001 76.3164 36.4199H79.748C79.7389 35.7956 79.5885 35.3239 79.2969 35.0049C79.0052 34.6813 78.6042 34.5195 78.0938 34.5195ZM88.2314 38.8467C88.2314 39.585 87.9626 40.1523 87.4248 40.5488C86.887 40.9408 86.1169 41.1367 85.1143 41.1367C84.1071 41.1367 83.2982 40.984 82.6875 40.6787V39.291C83.5762 39.7012 84.4033 39.9062 85.1689 39.9062C86.1579 39.9062 86.6523 39.6077 86.6523 39.0107C86.6523 38.8193 86.5977 38.6598 86.4883 38.5322C86.3789 38.4046 86.1989 38.2725 85.9482 38.1357C85.6976 37.999 85.349 37.8441 84.9023 37.6709C84.0319 37.3337 83.4417 36.9964 83.1318 36.6592C82.8265 36.3219 82.6738 35.8844 82.6738 35.3467C82.6738 34.6995 82.9336 34.1982 83.4531 33.8428C83.9772 33.4827 84.6882 33.3027 85.5859 33.3027C86.4746 33.3027 87.3154 33.4827 88.1084 33.8428L87.5889 35.0527C86.7731 34.7155 86.0872 34.5469 85.5312 34.5469C84.6836 34.5469 84.2598 34.7884 84.2598 35.2715C84.2598 35.5085 84.3691 35.709 84.5879 35.873C84.8112 36.0371 85.2943 36.2627 86.0371 36.5498C86.6615 36.7913 87.1149 37.0124 87.3975 37.2129C87.68 37.4134 87.8896 37.6458 88.0264 37.9102C88.1631 38.1699 88.2314 38.4821 88.2314 38.8467Z" fill="#0D2938"/>
</svg>
