<svg width="44" height="16" viewBox="0 0 44 16" fill="none" xmlns="http://www.w3.org/2000/svg">
<g clip-path="url(#clip0)">
<path d="M8 0C3.6 0 0 3.6 0 8C0 12.4 3.6 16 8 16C12.4 16 16 12.4 16 8C16 3.6 12.4 0 8 0ZM8.8 12H7.2V10.4H8.8V12ZM8.8 8.8H7.2V4H8.8V8.8Z" fill="#FF7E21"/>
</g>
<path d="M21.8799 9.05078V12H20.9717V4.86133H22.71C23.5758 4.86133 24.2155 5.02897 24.6289 5.36426C25.0423 5.69954 25.249 6.20736 25.249 6.8877C25.249 7.1709 25.2083 7.41829 25.127 7.62988C25.0488 7.84147 24.943 8.02376 24.8096 8.17676C24.6794 8.3265 24.5296 8.45182 24.3604 8.55273C24.1911 8.65365 24.0169 8.73665 23.8379 8.80176L25.7812 12H24.7119L22.998 9.05078H21.8799ZM21.8799 8.2793H22.6807C22.9736 8.2793 23.2227 8.25163 23.4277 8.19629C23.6328 8.1377 23.8005 8.05306 23.9307 7.94238C24.0641 7.82845 24.1602 7.68848 24.2188 7.52246C24.2806 7.35319 24.3115 7.15625 24.3115 6.93164C24.3115 6.69727 24.2773 6.4987 24.209 6.33594C24.1439 6.17318 24.043 6.03971 23.9062 5.93555C23.7728 5.83138 23.6019 5.75651 23.3936 5.71094C23.1885 5.66211 22.9443 5.6377 22.6611 5.6377H21.8799V8.2793ZM28.8672 12.0977C28.5091 12.0977 28.182 12.0374 27.8857 11.917C27.5895 11.7965 27.334 11.6208 27.1191 11.3896C26.9076 11.1585 26.7432 10.8721 26.626 10.5303C26.5088 10.1885 26.4502 9.79785 26.4502 9.3584C26.4502 8.91569 26.5039 8.52018 26.6113 8.17188C26.7188 7.82357 26.8701 7.52897 27.0654 7.28809C27.2607 7.04395 27.4935 6.8584 27.7637 6.73145C28.0371 6.60449 28.3382 6.54102 28.667 6.54102C28.9893 6.54102 29.279 6.59961 29.5361 6.7168C29.7933 6.83073 30.0114 6.99349 30.1904 7.20508C30.3695 7.41341 30.5062 7.66569 30.6006 7.96191C30.6982 8.25488 30.7471 8.5804 30.7471 8.93848V9.49023H27.3682C27.3844 10.1185 27.5163 10.5807 27.7637 10.877C28.0143 11.1732 28.3854 11.3213 28.877 11.3213C29.043 11.3213 29.196 11.3132 29.3359 11.2969C29.4792 11.2806 29.6159 11.2578 29.7461 11.2285C29.8796 11.196 30.0081 11.1569 30.1318 11.1113C30.2555 11.0625 30.3809 11.0088 30.5078 10.9502V11.7412C30.3776 11.8031 30.249 11.8568 30.1221 11.9023C29.9984 11.9479 29.8698 11.9854 29.7363 12.0146C29.6061 12.0439 29.4694 12.0651 29.3262 12.0781C29.1862 12.0911 29.0332 12.0977 28.8672 12.0977ZM28.6475 7.27832C28.2764 7.27832 27.9818 7.40527 27.7637 7.65918C27.5488 7.91309 27.4235 8.28255 27.3877 8.76758H29.79C29.79 8.54622 29.7673 8.3444 29.7217 8.16211C29.6794 7.97656 29.611 7.81868 29.5166 7.68848C29.4255 7.55827 29.3083 7.45736 29.165 7.38574C29.0218 7.31413 28.8493 7.27832 28.6475 7.27832ZM33.7207 11.3701C33.7793 11.3701 33.8444 11.3669 33.916 11.3604C33.9909 11.3538 34.0625 11.3457 34.1309 11.3359C34.1992 11.3262 34.2611 11.3148 34.3164 11.3018C34.375 11.2887 34.4189 11.2773 34.4482 11.2676V11.9414C34.4059 11.9609 34.3522 11.9805 34.2871 12C34.222 12.0195 34.1504 12.0358 34.0723 12.0488C33.9941 12.0651 33.9128 12.0765 33.8281 12.083C33.7435 12.0928 33.6605 12.0977 33.5791 12.0977C33.3773 12.0977 33.1901 12.0716 33.0176 12.0195C32.8451 11.9674 32.6953 11.8779 32.5684 11.751C32.4447 11.624 32.347 11.4531 32.2754 11.2383C32.2038 11.0202 32.168 10.7467 32.168 10.418V7.30762H31.4111V6.91211L32.168 6.53125L32.5488 5.4082H33.0615V6.63867H34.4092V7.30762H33.0615V10.418C33.0615 10.7337 33.112 10.9714 33.2129 11.1309C33.3171 11.2904 33.4863 11.3701 33.7207 11.3701ZM37.8076 6.54102C37.902 6.54102 38.0078 6.5459 38.125 6.55566C38.2422 6.56217 38.3431 6.57357 38.4277 6.58984L38.3105 7.41016C38.2194 7.39388 38.125 7.38086 38.0273 7.37109C37.9329 7.35807 37.8434 7.35156 37.7588 7.35156C37.5537 7.35156 37.3665 7.39388 37.1973 7.47852C37.028 7.5599 36.8815 7.67871 36.7578 7.83496C36.6374 7.98796 36.543 8.1735 36.4746 8.3916C36.4095 8.60645 36.377 8.8457 36.377 9.10938V12H35.4883V6.63867H36.2109L36.3184 7.62012H36.3574C36.4388 7.48014 36.5251 7.34505 36.6162 7.21484C36.7106 7.08464 36.8148 6.9707 36.9287 6.87305C37.0459 6.77214 37.1761 6.69238 37.3193 6.63379C37.4626 6.57194 37.6253 6.54102 37.8076 6.54102ZM38.6816 6.63867H39.6045L40.6543 9.63184C40.6999 9.76204 40.7454 9.89876 40.791 10.042C40.8398 10.1852 40.8838 10.3285 40.9229 10.4717C40.9652 10.6149 41.001 10.7533 41.0303 10.8867C41.0596 11.0202 41.0807 11.1439 41.0938 11.2578H41.123C41.1393 11.1764 41.1654 11.0658 41.2012 10.9258C41.237 10.7858 41.276 10.6377 41.3184 10.4814C41.3639 10.3219 41.4095 10.1657 41.4551 10.0127C41.5039 9.8597 41.5462 9.72949 41.582 9.62207L42.5537 6.63867H43.4717L41.3525 12.6982C41.2614 12.9619 41.1621 13.1979 41.0547 13.4062C40.9505 13.6178 40.8285 13.7969 40.6885 13.9434C40.5485 14.0898 40.3841 14.2021 40.1953 14.2803C40.0065 14.3617 39.7819 14.4023 39.5215 14.4023C39.3522 14.4023 39.2057 14.3926 39.082 14.373C38.9583 14.3568 38.8525 14.3389 38.7646 14.3193V13.6113C38.833 13.6276 38.9193 13.6406 39.0234 13.6504C39.1276 13.6634 39.2367 13.6699 39.3506 13.6699C39.5068 13.6699 39.6419 13.6504 39.7559 13.6113C39.8698 13.5755 39.9691 13.5218 40.0537 13.4502C40.1383 13.3786 40.21 13.2907 40.2686 13.1865C40.3304 13.0824 40.3857 12.9635 40.4346 12.8301L40.7129 12.0488L38.6816 6.63867Z" fill="#FF7E21"/>
<defs>
<clipPath id="clip0">
<rect width="16" height="16" fill="white"/>
</clipPath>
</defs>
</svg>
