<svg width="104" height="44" viewBox="0 0 104 44" fill="none" xmlns="http://www.w3.org/2000/svg">
<path fill-rule="evenodd" clip-rule="evenodd" d="M14.8299 27.9002C14.5273 30.1695 13.8465 32.3631 13.1658 34.5566C12.2581 37.5066 11.1235 40.3054 9.98884 43.1797C10.0645 42.1207 10.2158 41.1374 10.2914 40.0784C10.594 37.8848 10.8965 35.6913 11.1991 33.4977C11.5017 31.2284 11.3504 28.9592 10.594 26.7656C10.367 26.0092 9.83756 25.3284 9.23243 24.7233C8.2491 23.8156 7.94654 22.681 7.8709 21.3951C7.49269 15.949 8.92987 10.881 11.1235 6.03999C11.8799 4.37589 12.6363 2.71178 13.4683 1.12332C13.544 0.97204 13.6196 0.896399 13.6953 0.745117H13.7709C13.317 2.25794 12.7876 3.69511 12.4094 5.20793C11.8042 7.70409 11.2747 10.2002 10.8965 12.772C10.6696 14.4361 10.9722 16.1002 11.6529 17.6131C11.8799 18.2182 12.485 18.672 13.0145 19.1259C14.1491 20.0336 14.8299 21.0169 14.8299 22.5297C14.9055 24.3451 15.1324 26.1605 14.8299 27.9002Z" fill="#7D1416"/>
<path fill-rule="evenodd" clip-rule="evenodd" d="M13.3924 0.895952C13.3168 1.12288 13.1655 1.3498 13.0899 1.57672C10.9719 5.51005 8.77833 9.44339 7.26551 13.7549C6.35782 16.4024 5.82833 19.0498 5.75269 21.8485C5.75269 23.5883 6.05525 25.1767 7.03858 26.6139C7.11422 26.7652 7.18987 27.0677 7.11422 27.219C5.6014 29.6395 4.01294 31.9844 2.42448 34.4806C1.21423 33.5729 0.609098 32.4382 0.306534 31.1524C-0.298594 28.5806 0.0796111 26.0088 0.684739 23.5126C1.895 18.2177 4.39115 13.528 7.34115 9.06518C9.15653 6.26647 11.1988 3.54339 13.0899 0.820312C13.2411 0.820313 13.3168 0.895952 13.3924 0.895952Z" fill="#2B2A28"/>
<path fill-rule="evenodd" clip-rule="evenodd" d="M21.6368 16.0998C21.5612 19.7306 20.6535 23.21 19.4432 26.6139C17.2496 32.5895 14.0727 37.96 10.5176 43.2549C11.6522 40.4562 12.8624 37.6575 13.9971 34.8588C15.4342 31.228 16.4932 27.5216 16.5689 23.5882C16.6445 21.1677 16.4176 18.8229 14.7535 16.7806C14.6778 16.6293 14.6022 16.4024 14.6778 16.2511C15.9637 13.7549 17.3253 11.1831 18.6868 8.61133C19.7458 9.2921 20.3509 10.0485 20.8048 11.0318C21.5612 12.5447 21.7124 14.2844 21.6368 16.0998Z" fill="#2B2A28"/>
<path fill-rule="evenodd" clip-rule="evenodd" d="M50.4566 26.9163C50.0784 24.874 48.7169 23.3612 46.8258 23.2856C44.0271 23.2099 41.304 23.2856 38.4297 23.2856V33.6484C38.5053 33.6484 38.581 33.724 38.6566 33.724C41.304 33.724 43.8758 33.7997 46.5233 33.724C48.1874 33.6484 49.3976 32.7407 50.0784 31.2279C50.6835 29.7907 50.7592 28.3535 50.4566 26.9163ZM47.7335 31.3035C47.5066 32.0599 46.9771 32.4381 46.1451 32.3625C44.4053 32.3625 42.6656 32.3625 40.9258 32.3625V24.4958C42.8169 24.4958 44.7079 24.4202 46.5233 24.5715C46.9771 24.5715 47.5822 25.1766 47.7335 25.6304C48.4143 27.5215 48.4143 29.4125 47.7335 31.3035Z" fill="#2B2A28"/>
<path fill-rule="evenodd" clip-rule="evenodd" d="M63.9965 30.699C63.9965 31.8336 63.467 32.6656 62.4836 33.1195C61.9541 33.3464 61.4247 33.5733 60.8952 33.649C58.5503 33.7246 56.2811 33.649 53.8606 33.649V32.4387H56.1298C57.4157 32.4387 58.7772 32.4387 60.0631 32.4387C61.0465 32.4387 61.8029 31.7579 61.8029 30.8502C61.8029 29.8669 61.1221 29.1861 59.9875 29.1861C58.7772 29.1861 57.4913 29.1861 56.2811 29.1861C55.6003 29.1861 54.9952 29.0349 54.3144 28.8836C53.1042 28.5054 52.499 27.522 52.499 26.3118C52.499 25.1015 53.1042 24.1938 54.2388 23.6643C54.617 23.5131 55.0708 23.4374 55.5247 23.3618C55.9029 23.2861 56.2054 23.2861 56.5836 23.2861H62.4836V24.4964H59.7606C58.7772 24.4964 57.7183 24.4964 56.7349 24.4964C55.3734 24.4964 54.6926 25.0259 54.6926 26.1605C54.6926 27.2951 55.3734 27.8246 56.8106 27.8246C57.9452 27.8246 59.1554 27.749 60.29 27.8246C60.9708 27.8246 61.6516 27.9759 62.2567 28.2028C63.467 28.6566 63.9965 29.5643 63.9965 30.699Z" fill="#2B2A28"/>
<path fill-rule="evenodd" clip-rule="evenodd" d="M36.4631 30.6984C36.4631 31.833 35.9337 32.6651 34.9503 33.1945C34.4965 33.4215 33.967 33.6484 33.4375 33.6484C31.0926 33.724 28.8234 33.6484 26.4029 33.6484V32.4381H27.2349C29.0503 32.4381 30.7901 32.4381 32.6055 32.4381C33.5888 32.4381 34.3452 31.7574 34.3452 30.774C34.3452 29.8663 33.6644 29.1856 32.6811 29.1099C31.3196 29.1099 30.0337 29.1856 28.6721 29.1099C27.9157 29.0343 27.1593 28.883 26.4785 28.5804C24.6631 27.6727 24.5875 24.9497 26.3272 23.8907C26.7811 23.5881 27.3862 23.3612 27.9157 23.2856C30.2606 23.2099 32.6811 23.2856 35.026 23.2856V24.4202H32.2272C31.0926 24.4202 30.0337 24.4202 28.899 24.4202C27.8401 24.4202 27.1593 25.101 27.2349 26.0843C27.2349 27.0676 27.9157 27.6728 28.899 27.6728C30.1849 27.6728 31.4708 27.6728 32.7567 27.6728C33.4375 27.6728 34.0426 27.824 34.6478 28.051C35.9337 28.5804 36.4631 29.4881 36.4631 30.6984Z" fill="#2B2A28"/>
<path fill-rule="evenodd" clip-rule="evenodd" d="M91.7565 27.1444C91.4539 27.1444 91.0757 27.1444 90.7732 27.1444H87.8232V23.5137H86.0834C86.0834 26.0855 86.0078 28.5816 86.0834 31.0778C86.1591 32.6662 87.3693 33.5739 89.0334 33.6496C90.0168 33.6496 91.0757 33.6496 92.0591 33.6496C93.4962 33.5739 94.6309 32.8175 94.9334 31.6073C95.6898 28.6573 94.1014 27.0688 91.7565 27.1444ZM93.2693 31.3047C93.1937 32.1367 92.7398 32.4393 91.9078 32.515C91.0001 32.515 90.0924 32.515 89.1847 32.515C88.5039 32.515 88.0501 32.2124 87.9744 31.5316C87.8232 30.5483 87.8232 29.4893 87.7475 28.3547C89.336 28.3547 90.8488 28.3547 92.286 28.3547C92.8911 28.3547 93.1937 28.8085 93.2693 29.338C93.345 30.0188 93.345 30.6996 93.2693 31.3047Z" fill="#2B2A28"/>
<path fill-rule="evenodd" clip-rule="evenodd" d="M84.7981 30.3215C84.7981 28.4304 83.6635 27.2202 81.7724 27.1445C80.7891 27.1445 79.7301 27.1445 78.7468 27.1445C76.9314 27.2202 75.7968 28.2791 75.7212 30.0945C75.6455 32.1368 76.5532 33.4984 78.3686 33.6497C80.4865 33.8009 82.6045 33.6497 84.7981 33.6497C84.7981 32.515 84.7981 31.3804 84.7981 30.3215ZM82.9827 32.515C81.4699 32.515 80.0327 32.5907 78.5955 32.515C78.293 32.515 77.9148 32.0612 77.6878 31.7586C77.5366 31.5317 77.5366 31.1535 77.5366 30.7753C77.3853 28.733 77.7635 28.3548 79.7301 28.3548C80.3353 28.3548 81.016 28.3548 81.6212 28.3548C82.3776 28.3548 82.8314 28.733 82.9071 29.4138C82.9071 29.6407 82.9827 29.8676 82.9827 30.0945C82.9827 30.8509 82.9827 31.6073 82.9827 32.515Z" fill="#2B2A28"/>
<path fill-rule="evenodd" clip-rule="evenodd" d="M74.9647 32.4392V33.7251C73.225 33.7251 71.4852 33.8008 69.8211 33.7251C68.0057 33.5738 66.5686 32.2879 66.3416 30.3969C66.0391 28.052 66.1147 25.7072 66.0391 23.3623H68.5352C68.5352 25.0264 68.5352 26.6905 68.5352 28.279C68.5352 29.111 68.6109 29.9431 68.7621 30.7751C69.0647 32.061 69.5942 32.5905 70.8801 32.5149C72.2416 32.3636 73.6032 32.4392 74.9647 32.4392Z" fill="#2B2A28"/>
<path fill-rule="evenodd" clip-rule="evenodd" d="M103.405 31.8342C103.405 32.8176 102.422 33.6496 100.985 33.6496C99.6989 33.6496 98.3374 33.6496 96.9759 33.6496V32.5907H98.5643C99.3207 32.5907 100.153 32.5907 100.909 32.5907C101.439 32.5907 101.893 32.4394 101.893 31.8342C101.893 31.2291 101.514 30.9266 100.909 30.9266C100.153 30.9266 99.3207 30.9266 98.5643 30.9266C98.1105 30.9266 97.6566 30.8509 97.2028 30.6996C96.3707 30.3971 95.9169 29.565 95.9925 28.8086C96.0682 28.0522 96.6733 27.2958 97.581 27.2201C99.0938 27.1445 100.682 27.2201 102.271 27.2201V28.2035C100.985 28.2035 99.6989 28.2035 98.413 28.2035C98.1105 28.2035 97.6566 28.4304 97.5054 28.733C97.3541 28.9599 97.581 29.4137 97.7323 29.6407C97.8836 29.7919 98.1861 29.8676 98.4887 29.8676C99.3207 29.8676 100.077 29.8676 100.909 29.8676C102.573 30.0189 103.405 30.7753 103.405 31.8342Z" fill="#2B2A28"/>
</svg>
