<svg width="16" height="16" viewBox="0 0 16 16" fill="none" xmlns="http://www.w3.org/2000/svg">
<path d="M14.342 3.12563C13.0399 1.4316 11.1564 0.346081 9.03762 0.0688833C6.93981 -0.205526 4.86052 0.345634 3.17521 1.62041L2.56584 1.01021C2.39196 0.836143 2.23151 0.89435 2.20928 1.13912L2.00924 3.32345C1.98687 3.56823 2.16893 3.75066 2.41393 3.72856L4.59845 3.53119C4.84344 3.50916 4.90176 3.34858 4.72778 3.17451L4.09563 2.5416C5.48335 1.54726 7.16952 1.12177 8.87057 1.34431C10.6487 1.5769 12.2294 2.48794 13.322 3.90955C14.4145 5.33107 14.888 7.09284 14.6554 8.87048C14.4901 10.133 13.9828 11.2961 13.1934 12.2559C12.8713 12.6473 12.5022 13.005 12.09 13.3216C10.6685 14.4142 8.90657 14.8877 7.12863 14.6551C5.35088 14.4225 3.77029 13.5115 2.67761 12.09C1.6132 10.7053 1.13433 8.9871 1.32903 7.25204C1.36865 6.89897 1.11457 6.58054 0.761383 6.54106C0.408437 6.5013 0.0901906 6.7555 0.0507411 7.10857C-0.181619 9.17618 0.389195 11.2238 1.65753 12.8739C2.95958 14.5679 4.84331 15.6535 6.96181 15.9307C9.08024 16.2077 11.1797 15.6433 12.8741 14.3414C13.3648 13.9644 13.8048 13.5381 14.1886 13.0715C15.1297 11.928 15.7341 10.5422 15.9311 9.03756C16.2082 6.91908 15.6439 4.81956 14.342 3.12563Z" fill="#38A7DE"/>
</svg>
