<svg width="20" height="19" viewBox="0 0 20 19" fill="none" xmlns="http://www.w3.org/2000/svg">
<path d="M1 13V17C1 17.5523 1.44772 18 2 18H18C18.5523 18 19 17.5523 19 17V13" stroke="white" stroke-width="1.5" stroke-linecap="round" stroke-linejoin="round"/>
<path d="M10.5303 0.46967C10.2374 0.176777 9.76256 0.176777 9.46967 0.46967L4.6967 5.24264C4.40381 5.53553 4.40381 6.01041 4.6967 6.3033C4.98959 6.59619 5.46447 6.59619 5.75736 6.3033L10 2.06066L14.2426 6.3033C14.5355 6.59619 15.0104 6.59619 15.3033 6.3033C15.5962 6.01041 15.5962 5.53553 15.3033 5.24264L10.5303 0.46967ZM10.75 13L10.75 1L9.25 1L9.25 13L10.75 13Z" fill="white"/>
</svg>
