<svg width="83" height="45" viewBox="0 0 83 45" fill="none" xmlns="http://www.w3.org/2000/svg">
<path d="M43.5 2H35.5C34.9696 2 34.4609 2.21071 34.0858 2.58579C33.7107 2.96086 33.5 3.46957 33.5 4V20C33.5 20.5304 33.7107 21.0391 34.0858 21.4142C34.4609 21.7893 34.9696 22 35.5 22H47.5C48.0304 22 48.5391 21.7893 48.9142 21.4142C49.2893 21.0391 49.5 20.5304 49.5 20V8L43.5 2ZM43 16V19H40V16H37.5L41.5 12L45.5 16H43ZM42.5 9V3.5L48 9H42.5Z" fill="#0D2938"/>
<path d="M9.15332 31.0059V37.4727C9.15332 38.2109 8.99382 38.8581 8.6748 39.4141C8.36035 39.9655 7.90234 40.3916 7.30078 40.6924C6.70378 40.9886 5.98828 41.1367 5.1543 41.1367C3.91471 41.1367 2.95085 40.8086 2.2627 40.1523C1.57454 39.4961 1.23047 38.5938 1.23047 37.4453V31.0059H2.87109V37.3291C2.87109 38.154 3.0625 38.7624 3.44531 39.1543C3.82812 39.5462 4.41602 39.7422 5.20898 39.7422C6.74935 39.7422 7.51953 38.9333 7.51953 37.3154V31.0059H9.15332ZM15.374 41.1367C14.417 41.1367 13.6742 40.7926 13.1455 40.1045H13.0498C13.1136 40.7425 13.1455 41.1299 13.1455 41.2666V44.3633H11.5391V33.4395H12.8379C12.8743 33.5807 12.9495 33.918 13.0635 34.4512H13.1455C13.6468 33.6855 14.3988 33.3027 15.4014 33.3027C16.3447 33.3027 17.0785 33.6445 17.6025 34.3281C18.1312 35.0117 18.3955 35.971 18.3955 37.2061C18.3955 38.4411 18.1266 39.4049 17.5889 40.0977C17.0557 40.7904 16.3174 41.1367 15.374 41.1367ZM14.9844 34.6152C14.3464 34.6152 13.8792 34.8021 13.583 35.1758C13.2913 35.5495 13.1455 36.1465 13.1455 36.9668V37.2061C13.1455 38.1266 13.2913 38.7943 13.583 39.209C13.8747 39.6191 14.3509 39.8242 15.0117 39.8242C15.5677 39.8242 15.9961 39.5964 16.2969 39.1406C16.5977 38.6849 16.748 38.0355 16.748 37.1924C16.748 36.3447 16.5977 35.7044 16.2969 35.2715C16.0007 34.834 15.5632 34.6152 14.9844 34.6152ZM21.8682 41H20.2617V30.3633H21.8682V41ZM30.8779 37.2061C30.8779 38.4411 30.5612 39.4049 29.9277 40.0977C29.2943 40.7904 28.4124 41.1367 27.2822 41.1367C26.5758 41.1367 25.9515 40.9772 25.4092 40.6582C24.8669 40.3392 24.4499 39.8812 24.1582 39.2842C23.8665 38.6872 23.7207 37.9945 23.7207 37.2061C23.7207 35.9801 24.0352 35.0231 24.6641 34.335C25.293 33.6468 26.1794 33.3027 27.3232 33.3027C28.417 33.3027 29.2829 33.6559 29.9209 34.3623C30.5589 35.0641 30.8779 36.012 30.8779 37.2061ZM25.375 37.2061C25.375 38.9515 26.0199 39.8242 27.3096 39.8242C28.5856 39.8242 29.2236 38.9515 29.2236 37.2061C29.2236 35.4788 28.5811 34.6152 27.2959 34.6152C26.6214 34.6152 26.1315 34.8385 25.8262 35.2852C25.5254 35.7318 25.375 36.3721 25.375 37.2061ZM37.4609 41L37.1396 39.9473H37.085C36.7204 40.4076 36.3535 40.722 35.9844 40.8906C35.6152 41.0547 35.1413 41.1367 34.5625 41.1367C33.8197 41.1367 33.2386 40.9362 32.8193 40.5352C32.4046 40.1341 32.1973 39.5667 32.1973 38.833C32.1973 38.0537 32.4867 37.4658 33.0654 37.0693C33.6442 36.6729 34.526 36.4564 35.7109 36.4199L37.0166 36.3789V35.9756C37.0166 35.4925 36.9027 35.1325 36.6748 34.8955C36.4515 34.654 36.1029 34.5332 35.6289 34.5332C35.2415 34.5332 34.8701 34.5902 34.5146 34.7041C34.1592 34.818 33.8174 34.9525 33.4893 35.1074L32.9697 33.959C33.3799 33.7448 33.8288 33.583 34.3164 33.4736C34.804 33.3597 35.2643 33.3027 35.6973 33.3027C36.6589 33.3027 37.3835 33.5124 37.8711 33.9316C38.3633 34.3509 38.6094 35.0094 38.6094 35.9072V41H37.4609ZM35.0684 39.9062C35.6517 39.9062 36.1188 39.7445 36.4697 39.4209C36.8252 39.0928 37.0029 38.6348 37.0029 38.0469V37.3906L36.0322 37.4316C35.2757 37.459 34.7243 37.5866 34.3779 37.8145C34.0361 38.0378 33.8652 38.3818 33.8652 38.8467C33.8652 39.1839 33.9655 39.446 34.166 39.6328C34.3665 39.8151 34.6673 39.9062 35.0684 39.9062ZM43.4014 41.1367C42.458 41.1367 41.722 40.7949 41.1934 40.1113C40.6647 39.4277 40.4004 38.4684 40.4004 37.2334C40.4004 35.9938 40.667 35.0299 41.2002 34.3418C41.738 33.6491 42.4808 33.3027 43.4287 33.3027C44.4222 33.3027 45.1787 33.6696 45.6982 34.4033H45.7803C45.7028 33.861 45.6641 33.4326 45.6641 33.1182V30.3633H47.2773V41H46.0195L45.7393 40.0088H45.6641C45.1491 40.7607 44.3949 41.1367 43.4014 41.1367ZM43.832 39.8379C44.4928 39.8379 44.9736 39.6533 45.2744 39.2842C45.5752 38.9105 45.7301 38.3066 45.7393 37.4727V37.2471C45.7393 36.2946 45.5843 35.6178 45.2744 35.2168C44.9645 34.8158 44.4792 34.6152 43.8184 34.6152C43.2533 34.6152 42.818 34.8454 42.5127 35.3057C42.2074 35.7614 42.0547 36.4131 42.0547 37.2607C42.0547 38.0993 42.2028 38.7396 42.499 39.1816C42.7952 39.6191 43.2396 39.8379 43.832 39.8379ZM55.002 41H53.3818V31.0059H59.0215V32.3867H55.002V35.5107H58.7686V36.8984H55.002V41ZM62.2686 41H60.6621V33.4395H62.2686V41ZM60.5664 31.4365C60.5664 31.1494 60.6439 30.9284 60.7988 30.7734C60.9583 30.6185 61.1839 30.541 61.4756 30.541C61.7581 30.541 61.9769 30.6185 62.1318 30.7734C62.2913 30.9284 62.3711 31.1494 62.3711 31.4365C62.3711 31.71 62.2913 31.9264 62.1318 32.0859C61.9769 32.2409 61.7581 32.3184 61.4756 32.3184C61.1839 32.3184 60.9583 32.2409 60.7988 32.0859C60.6439 31.9264 60.5664 31.71 60.5664 31.4365ZM66.1787 41H64.5723V30.3633H66.1787V41ZM71.7842 41.1367C70.6084 41.1367 69.6878 40.7949 69.0225 40.1113C68.3617 39.4232 68.0312 38.4775 68.0312 37.2744C68.0312 36.0394 68.3389 35.0687 68.9541 34.3623C69.5693 33.6559 70.4147 33.3027 71.4902 33.3027C72.4883 33.3027 73.2767 33.6058 73.8555 34.2119C74.4342 34.818 74.7236 35.652 74.7236 36.7139V37.582H69.6855C69.7083 38.3158 69.9066 38.8809 70.2803 39.2773C70.654 39.6693 71.1803 39.8652 71.8594 39.8652C72.306 39.8652 72.7207 39.8242 73.1035 39.7422C73.4909 39.6556 73.9056 39.5143 74.3477 39.3184V40.624C73.9557 40.8109 73.5592 40.943 73.1582 41.0205C72.7572 41.098 72.2992 41.1367 71.7842 41.1367ZM71.4902 34.5195C70.9798 34.5195 70.5697 34.6813 70.2598 35.0049C69.9544 35.3285 69.7721 35.8001 69.7129 36.4199H73.1445C73.1354 35.7956 72.985 35.3239 72.6934 35.0049C72.4017 34.6813 72.0007 34.5195 71.4902 34.5195ZM81.6279 38.8467C81.6279 39.585 81.359 40.1523 80.8213 40.5488C80.2835 40.9408 79.5133 41.1367 78.5107 41.1367C77.5036 41.1367 76.6947 40.984 76.084 40.6787V39.291C76.9727 39.7012 77.7998 39.9062 78.5654 39.9062C79.5544 39.9062 80.0488 39.6077 80.0488 39.0107C80.0488 38.8193 79.9941 38.6598 79.8848 38.5322C79.7754 38.4046 79.5954 38.2725 79.3447 38.1357C79.0941 37.999 78.7454 37.8441 78.2988 37.6709C77.4284 37.3337 76.8382 36.9964 76.5283 36.6592C76.223 36.3219 76.0703 35.8844 76.0703 35.3467C76.0703 34.6995 76.3301 34.1982 76.8496 33.8428C77.3737 33.4827 78.0846 33.3027 78.9824 33.3027C79.8711 33.3027 80.7119 33.4827 81.5049 33.8428L80.9854 35.0527C80.1696 34.7155 79.4837 34.5469 78.9277 34.5469C78.0801 34.5469 77.6562 34.7884 77.6562 35.2715C77.6562 35.5085 77.7656 35.709 77.9844 35.873C78.2077 36.0371 78.6908 36.2627 79.4336 36.5498C80.0579 36.7913 80.5114 37.0124 80.7939 37.2129C81.0765 37.4134 81.2861 37.6458 81.4229 37.9102C81.5596 38.1699 81.6279 38.4821 81.6279 38.8467Z" fill="#0D2938"/>
</svg>
